<?xml version="1.0" encoding="UTF-8"?>
<svg xmlns="http://www.w3.org/2000/svg" viewBox="0 0 118.53 45.72">
  <path d="m30.12,29.51V.6h-11.69L0,29.64v7.35h21.19v7.76h8.93v-7.76h5.47v-7.48h-5.47Zm-8.75,0h-11.97v-.34l11.62-18.39h.35v18.73Z"/>
  <path d="m59.14,45.72c-3.71-.01-6.9-.93-9.56-2.74-2.67-1.81-4.71-4.43-6.14-7.87-1.43-3.43-2.14-7.57-2.12-12.4,0-4.81.71-8.92,2.15-12.31,1.43-3.39,3.48-5.98,6.14-7.75,2.67-1.77,5.85-2.66,9.54-2.66s6.87.89,9.54,2.67,4.72,4.37,6.16,7.75c1.44,3.38,2.15,7.48,2.13,12.3,0,4.84-.71,8.98-2.14,12.42-1.43,3.44-3.47,6.06-6.13,7.87-2.66,1.81-5.84,2.72-9.55,2.72Zm0-7.74c2.53,0,4.55-1.27,6.06-3.82,1.51-2.54,2.26-6.36,2.24-11.45,0-3.35-.34-6.14-1.02-8.36-.68-2.23-1.65-3.9-2.89-5.02s-2.71-1.68-4.39-1.68c-2.52,0-4.53,1.26-6.04,3.77-1.51,2.52-2.27,6.28-2.29,11.3,0,3.39.34,6.22,1.02,8.48.68,2.26,1.65,3.96,2.9,5.09,1.25,1.13,2.72,1.69,4.4,1.69Z"/>
  <path d="m113.05,29.51V.6h-11.68l-18.44,29.04v7.35h21.2v7.76h8.92v-7.76h5.48v-7.48h-5.48Zm-8.75,0h-11.97v-.34l11.62-18.39h.35v18.73Z"/>
</svg>