<svg width="293" height="236" viewBox="0 0 293 236" fill="none" xmlns="http://www.w3.org/2000/svg">
<path d="M15.4502 190.06V180.75L25.2402 183.02L21.1802 194.34" fill="#0C0C30"/>
<path d="M200.12 59.65C196.8 60.87 194.69 59.52 192 58.45C191.51 58.26 188.87 57.54 188.66 57.36C187.38 56.27 187.56 54.38 186.38 53.59C183.22 51.47 180.02 54.17 177.4 51.11C175.92 49.38 176.07 47.69 174.05 46.61C172.76 45.92 170.63 46.17 169.21 45.51C167.58 44.75 162.43 41.77 161.47 40.28C158.95 36.34 164.31 35.94 165.59 32.91C166.13 31.65 165.17 30 165.38 29.12C166.04 26.34 166.84 27.73 168.86 26.23C169.72 25.59 173.42 21.35 173.68 20.63C173.69 20.59 174.92 20.1 175.04 20.07C173.79 19.62 172.07 20.63 171.07 20.18C169.79 19.6 169.73 18.22 168.89 17.21C168.88 18.31 168.32 19.29 168.41 20.42C166.62 18.39 164.21 17.85 161.83 17.61C160.43 21.91 158.2 18.26 156.27 17.46C154.14 16.58 153.08 17.12 150.59 16.34C148.53 15.69 145.84 15.3 143.88 14.58C141.91 13.86 140.65 11.22 138.33 11.65C139.25 13.22 141.27 12.9 142.05 14.56C142.58 15.69 141.7 18.15 141.59 19.35C138.59 20.52 129.8 20.53 128.52 23.08C125.67 21.51 125.67 25.84 123.81 26.93C124.31 27.36 124.79 28.7 125.23 29.12C123.48 29.52 121.48 30.32 121.48 32.39C120.19 32.59 118.92 33.27 117.86 34C118.83 36.51 121.06 38.4 120.35 41.32C115.55 43.91 113.14 40.99 109.99 38.37C108.97 39.33 108.21 40.55 107.36 41.63C107.49 39.18 106.42 38.26 105.15 36.93C104.61 36.36 103.25 36.3 102.61 35.71C101.87 35.03 102.66 33.66 102.11 33.19C98.5998 30.21 95.1998 33.8 94.6898 37.61C87.3798 36.73 86.9098 47.39 81.7298 46.29C82.4898 47.15 83.1798 48.78 82.7398 50.27C80.7998 50.66 78.9298 51.26 76.8898 51.13C76.0298 55.5 82.4498 56.91 75.4198 59.23C74.8898 57.76 74.0598 56.16 74.1598 54.49C73.0798 53.37 71.5298 52.53 69.8098 52.99C69.8998 55.14 69.0798 55.86 68.5498 57.32C68.4198 57.69 67.3698 57.56 67.1298 58.52C66.9498 59.24 67.8998 60.4 67.9798 61.21C68.2898 64.35 68.3598 64.06 66.3298 66.15C64.3498 68.21 63.0198 69.34 61.4598 71.55C58.9698 75.08 55.2698 76.96 51.0198 78.26C48.5298 79.02 40.7998 77.76 41.0098 81.17C38.1798 82.39 35.2898 81.92 32.4998 83.02C31.2598 83.51 30.1598 84.69 29.1598 84.96C27.6498 85.37 25.8398 84.62 24.3098 85.03C21.4798 85.77 18.2198 88.61 16.1298 90.46C13.7898 92.53 12.6798 96.62 10.1598 98.06C9.49978 97.04 8.77978 97.06 8.61978 95.81C4.26978 94.74 5.93978 100.23 6.06978 102.46C6.28978 106.42 8.77978 109.86 5.01978 112.58C4.89978 115.71 11.3998 121.89 8.24978 125.95C5.59978 129.36 0.119782 120.33 0.549782 127.72C2.23978 129.16 3.53978 132.58 4.92978 134.56C6.96978 137.45 7.01978 140.21 8.64978 143.06C9.72978 144.95 12.1798 145.85 13.1498 147.89C13.8398 149.34 13.5498 151.14 13.8898 152.73C14.3898 155.08 15.8098 157.06 16.4298 159.36C17.2598 162.43 16.1798 166.13 17.2298 169.14C18.3298 172.28 19.8698 173 20.2298 176.57C20.7398 181.71 21.7698 189.07 15.4398 190.04C17.1098 195.2 26.7398 201.27 31.8798 200.88C34.9598 200.64 38.9298 198.49 41.8298 197.44C45.2498 196.2 44.9498 195.06 47.4998 192.52C50.9798 189.07 61.4598 188.46 66.8798 189.2C70.3398 189.68 73.3298 192.49 76.3698 190.61C78.7198 189.16 78.8198 186.4 82.3598 186.55C83.2898 185.42 83.8398 183.75 83.6098 182.21C89.7398 180.57 95.1998 178.47 101.14 175.89C102.95 175.11 105.53 173.76 107.39 173.57C109.06 173.39 110.06 174.62 111.85 174.33C115.08 173.81 115.44 170.89 118.55 170.23C121.09 169.69 124.93 169.82 127.49 169.86C131.6 169.91 131.11 172.48 134.58 173.23C137.39 173.84 141.52 172.36 144.28 172.81C148.43 173.49 149.75 178.06 154.61 178.11C153.03 183.02 155.85 183.67 158.77 187.01C162.03 190.75 161.92 193.53 163.3 198.11C164.02 198.47 165.39 198.8 166.16 198.85C166.11 196.89 166.51 194.95 166.65 193.02C169.23 191.79 170.94 191.51 172.92 189.59C174.75 187.82 175.18 184.94 178.09 184.31C178.25 183.97 178.02 183.66 178.18 183.32C182.44 182.49 181.9 189.05 180.83 191.29C179.45 194.18 179.04 196.36 178.18 199.22C180.4 199.57 181.92 197.98 184.02 197.83C184.42 198.66 184.81 199.85 185.17 200.73C184.25 202.09 182.88 203.31 181.94 204.71C184.22 206.55 186.89 206.36 188.55 204.03C189.63 205.37 190.63 207.41 191.99 208.49C193.71 209.85 195.46 209.42 196.37 211.56C198.63 216.87 193.5 219.59 200.07 222.83C205.01 225.26 208.62 228.75 213.46 230.47C216.95 231.71 219.88 234.47 223.86 233.86C224 229.65 233.87 231.67 229.54 226.17C230.15 225.97 231.06 226.02 231.67 226.15C232.2 228.1 232.75 229.09 233.96 230.49C234.41 231.01 235.45 231.11 236.16 231.93C236.44 232.25 237.78 235.45 237.74 235.43C239.96 236.55 246.65 232.01 246.3 229.5C248.76 229.06 252.11 228.03 254.17 226.54C255.42 225.64 255.91 224.43 257.43 223.38C260.42 221.33 265.82 222.23 268.89 223.44C269.6 220.18 267.38 216.44 267.5 213.05C267.7 207.27 269.52 205.58 272.42 201.22C273.81 199.13 274.19 196.1 274.56 193.68C275.13 189.95 276.1 188.33 278.19 185.01C279.96 182.19 283.25 176.9 286.41 175.73C286.63 172.11 286.63 168.88 287.32 165.38C288.17 161.09 289.34 158.9 290.88 155.02C293.44 148.58 291.36 140.64 290.25 134.76C289.6 131.32 288.86 128.68 288.33 125.15C287.72 121.03 284.88 119.21 282.81 115.46C280.64 111.52 279.04 109.82 275.66 106.91C271.33 103.18 273.87 102.68 273.07 97.96C272.94 97.16 273.05 96.21 273.01 95.41C271.29 95.17 269.3 95.04 268.14 96.42C266.99 95.57 265.93 94.72 264.56 94.67C263.83 95.66 263.79 95.28 262.69 95.67C262.56 93.17 263.3 90.45 261.53 88.72C260.7 87.91 258.63 88.33 257.77 87.18C257.42 86.71 257.75 84.15 257.73 83.5C255.98 82.24 256.74 79.33 256.62 77.16C252.63 76.64 246.89 75.88 244.08 72.64C242.42 70.72 241.86 64.54 238.48 65.14C238.28 61.63 238.36 57.9 237.03 54.57C236.2 52.46 235.63 52.15 234.34 50.56C232.49 48.28 232.85 49.33 232.01 45.79C231.46 43.49 229.82 38.58 227.71 37.5C226.74 37 224.74 38.29 223.49 37.57C223.15 37.38 221.53 33.97 220.89 33.25C219.82 32.05 218.84 31.56 217.95 30.14C216.53 27.87 215.53 8.2 211.3 9.77C209.23 10.54 210.92 17.54 210.41 19.38C209.19 23.79 205.31 25.31 206.02 30.38C206.4 33.09 207.61 35.07 207.07 38.24C206.44 41.96 203.67 45.44 203.11 48.8C202.69 51.34 204.15 53.13 202.96 55.8C202.01 57.94 200.14 58.95 198.94 60.72" fill="#0C0C30"/>
<path d="M0.570001 127.74C0.570001 127.74 0.140002 116.86 0.940002 115.75L10.93 122.68L7.21 132.64" fill="#0C0C30"/>
<path d="M5.04004 112.6V103.29H8.57004L7.58004 112.6H5.04004Z" fill="#0C0C30"/>
<path d="M5.69002 99.1C5.69002 99.1 5.46001 89.18 5.96001 87.39C6.46001 87.46 11.67 94.04 11.67 94.04L5.69002 99.1Z" fill="#0C0C30"/>
<path d="M175.04 20.09V10.78L169.7 12.85L164.3 16.83V20.09L166.48 22.16" fill="#0C0C30"/>
<path d="M291.91 151.38C291.91 151.38 292.9 141.53 292.01 135.62C291.13 129.71 285.65 134.63 285.65 134.63L289.99 153" fill="#0C0C30"/>
<path d="M268.94 223.48C268.94 223.48 269.89 210.98 268.15 209.12C266.41 207.26 266.04 219.42 266.04 219.42" fill="#0C0C30"/>
<path d="M181.97 204.75V195.44L186.71 194.22L187.46 201.67" fill="#0C0C30"/>
<path d="M178.2 199.25V189.94L181 187.27H182.74V190" fill="#0C0C30"/>
<mask id="mask0_801_2074" style="mask-type:luminance" maskUnits="userSpaceOnUse" x="0" y="0" width="293" height="227">
<path d="M200.12 50.34C196.8 51.56 194.69 50.21 192 49.14C191.51 48.95 188.87 48.23 188.66 48.05C187.38 46.96 187.56 45.08 186.38 44.28C183.22 42.16 180.02 44.86 177.4 41.8C175.92 40.06 176.07 38.38 174.05 37.3C172.76 36.61 170.63 36.86 169.21 36.2C167.58 35.44 162.43 32.46 161.47 30.97C158.95 27.03 164.31 26.63 165.59 23.6C166.13 22.34 165.17 20.69 165.38 19.81C166.04 17.03 166.84 18.42 168.86 16.92C169.72 16.28 173.42 12.04 173.68 11.32C173.69 11.28 174.92 10.79 175.04 10.76C173.79 10.31 172.07 11.32 171.07 10.87C169.79 10.29 169.73 8.91001 168.89 7.90001C168.88 9.00001 168.32 9.98001 168.41 11.11C166.62 9.08001 164.21 8.54 161.83 8.3C160.43 12.6 158.2 8.95001 156.27 8.15001C154.14 7.27001 153.08 7.81 150.59 7.03C148.53 6.39 145.84 5.99001 143.88 5.27001C141.91 4.55001 140.65 1.91001 138.33 2.34001C139.25 3.91001 141.27 3.59001 142.05 5.25001C142.58 6.38001 141.7 8.84001 141.59 10.04C138.59 11.2 129.8 11.22 128.52 13.77C125.67 12.2 125.67 16.53 123.81 17.62C124.31 18.05 124.79 19.38 125.23 19.81C123.48 20.21 121.48 21.01 121.48 23.08C120.19 23.28 118.92 23.96 117.86 24.69C118.83 27.2 121.06 29.09 120.35 32.01C115.55 34.6 113.14 31.68 109.99 29.06C108.97 30.02 108.21 31.23 107.36 32.32C107.49 29.87 106.42 28.95 105.15 27.62C104.61 27.05 103.25 26.99 102.61 26.4C101.87 25.72 102.66 24.35 102.11 23.88C98.5998 20.9 95.1998 24.49 94.6898 28.3C87.3798 27.42 86.9098 38.08 81.7298 36.98C82.4898 37.84 83.1798 39.47 82.7398 40.96C80.7998 41.35 78.9298 41.95 76.8898 41.82C76.0298 46.19 82.4498 47.6 75.4198 49.92C74.8898 48.45 74.0598 46.85 74.1598 45.18C73.0798 44.06 71.5298 43.22 69.8098 43.68C69.8998 45.83 69.0798 46.56 68.5498 48.01C68.4198 48.38 67.3698 48.25 67.1298 49.21C66.9498 49.93 67.8998 51.09 67.9798 51.9C68.2898 55.04 68.3598 54.75 66.3298 56.84C64.3498 58.9 63.0198 60.03 61.4598 62.24C58.9698 65.77 55.2698 67.65 51.0198 68.95C48.5298 69.71 40.7998 68.45 41.0098 71.86C38.1798 73.08 35.2898 72.61 32.4998 73.71C31.2598 74.2 30.1598 75.38 29.1598 75.65C27.6498 76.06 25.8398 75.31 24.3098 75.72C21.4798 76.46 18.2198 79.3 16.1298 81.15C13.7898 83.22 12.6798 87.31 10.1598 88.75C9.49978 87.73 8.77978 87.75 8.61978 86.5C4.26978 85.43 5.93978 90.93 6.06978 93.15C6.28978 97.11 8.77978 100.55 5.01978 103.27C4.89978 106.4 11.3998 112.58 8.24978 116.64C5.59978 120.06 0.119782 111.02 0.549782 118.42C2.23978 119.86 3.53978 123.28 4.92978 125.26C6.96978 128.15 7.01978 130.92 8.64978 133.76C9.72978 135.65 12.1798 136.55 13.1498 138.59C13.8398 140.04 13.5498 141.84 13.8898 143.43C14.3898 145.78 15.8098 147.76 16.4298 150.06C17.2598 153.13 16.1798 156.83 17.2298 159.84C18.3298 162.98 19.8698 163.7 20.2298 167.27C20.7398 172.41 21.7698 179.77 15.4398 180.74C17.1098 185.91 26.7398 191.97 31.8798 191.57C34.9598 191.33 38.9298 189.18 41.8298 188.13C45.2498 186.89 44.9498 185.75 47.4998 183.21C50.9798 179.76 61.4598 179.15 66.8798 179.9C70.3398 180.38 73.3298 183.19 76.3698 181.31C78.7198 179.86 78.8198 177.11 82.3598 177.25C83.2898 176.12 83.8398 174.44 83.6098 172.91C89.7398 171.27 95.1998 169.17 101.14 166.6C102.95 165.82 105.53 164.47 107.39 164.28C109.06 164.1 110.06 165.33 111.85 165.04C115.08 164.52 115.44 161.6 118.55 160.93C121.09 160.39 124.93 160.53 127.49 160.56C131.6 160.61 131.11 163.18 134.58 163.93C137.39 164.54 141.52 163.06 144.28 163.51C148.43 164.19 149.75 168.76 154.61 168.81C153.03 173.72 155.85 174.37 158.77 177.71C162.03 181.45 161.92 184.23 163.3 188.81C164.02 189.17 165.39 189.5 166.16 189.55C166.11 187.58 166.51 185.65 166.65 183.71C169.23 182.48 170.94 182.21 172.92 180.28C174.75 178.51 175.18 175.63 178.09 175C178.25 174.66 178.02 174.35 178.18 174.01C182.44 173.18 181.9 179.74 180.83 181.98C179.45 184.88 179.04 187.06 178.18 189.91C180.4 190.26 181.92 188.67 184.02 188.52C184.42 189.36 184.81 190.54 185.17 191.43C184.25 192.8 182.88 194.01 181.94 195.41C184.22 197.25 186.89 197.06 188.55 194.73C189.63 196.07 190.63 198.11 191.99 199.19C193.71 200.55 195.46 200.12 196.37 202.25C198.63 207.56 193.5 210.28 200.07 213.52C205.01 215.96 208.62 219.44 213.46 221.16C216.95 222.4 219.88 225.15 223.86 224.55C224 220.34 233.87 222.36 229.54 216.86C230.15 216.66 231.06 216.71 231.67 216.84C232.2 218.79 232.75 219.78 233.96 221.18C234.41 221.7 235.45 221.8 236.16 222.62C236.44 222.94 237.78 226.14 237.74 226.12C239.96 227.24 246.65 222.7 246.3 220.19C248.76 219.74 252.11 218.72 254.17 217.23C255.42 216.33 255.91 215.12 257.43 214.07C260.42 212.02 265.82 212.92 268.89 214.13C269.6 210.87 267.38 207.13 267.5 203.74C267.7 197.96 269.52 196.27 272.42 191.91C273.81 189.82 274.19 186.79 274.56 184.37C275.13 180.64 276.1 179.02 278.19 175.71C279.96 172.89 283.25 167.6 286.41 166.43C286.63 162.81 286.63 159.58 287.32 156.08C288.17 151.79 289.34 149.6 290.88 145.72C293.44 139.28 291.36 131.34 290.25 125.46C289.6 122.02 288.86 119.38 288.33 115.85C287.72 111.73 284.88 109.91 282.81 106.16C280.64 102.22 279.04 100.52 275.66 97.61C271.33 93.88 273.87 93.38 273.07 88.66C272.94 87.86 273.05 86.91 273.01 86.11C271.29 85.87 269.3 85.74 268.14 87.12C266.99 86.27 265.93 85.42 264.56 85.37C263.83 86.36 263.79 85.98 262.69 86.36C262.56 83.86 263.3 81.14 261.53 79.41C260.7 78.6 258.63 79.02 257.77 77.87C257.42 77.4 257.75 74.84 257.73 74.19C255.98 72.93 256.74 70.02 256.62 67.85C252.63 67.33 246.89 66.57 244.08 63.33C242.42 61.41 241.86 55.23 238.48 55.83C238.28 52.32 238.36 48.59 237.03 45.26C236.2 43.15 235.63 42.84 234.34 41.25C232.49 38.97 232.85 40.02 232.01 36.48C231.46 34.18 229.82 29.27 227.71 28.19C226.74 27.69 224.74 28.98 223.49 28.26C223.15 28.07 221.53 24.66 220.89 23.94C219.82 22.74 218.84 22.25 217.95 20.83C216.53 18.56 215.53 -1.11 211.3 0.460004C209.23 1.23 210.92 8.23 210.41 10.07C209.19 14.48 205.31 16 206.02 21.07C206.4 23.78 207.61 25.76 207.07 28.93C206.44 32.66 203.67 36.13 203.11 39.49C202.69 42.03 204.15 43.82 202.96 46.49C202.01 48.63 200.14 49.64 198.94 51.41" fill="white"/>
</mask>
<g mask="url(#mask0_801_2074)">
<path d="M334.56 -26H-17V249.09H334.56V-26Z" fill="#13286B"/>
<path d="M223.18 97.75L228.4 95.79L225.72 100.87L230.25 103.84L224.86 104.99L225.31 110.64L221.26 107.01L217.28 111.09L217.63 105.4L212.22 104.85L216.71 101.38L213.94 96.6L219.17 97.98L221.14 92.57L223.18 97.75Z" fill="white"/>
<path d="M186.47 136.64L191.68 134.68L189 139.77L193.53 142.73L188.14 143.89L188.59 149.54L184.54 145.9L180.56 149.99L180.91 144.3L175.5 143.74L179.98 140.27L177.22 135.5L182.46 136.87L184.42 131.47L186.47 136.64Z" fill="white"/>
<path d="M234.75 176.7L239.96 174.75L237.28 179.83L241.82 182.79L236.42 183.95L236.86 189.6L232.82 185.96L228.84 190.05L229.19 184.35L223.78 183.8L228.26 180.33L225.49 175.56L230.73 176.93L232.69 171.53L234.75 176.7Z" fill="white"/>
<path d="M252.81 122.32L258.03 120.36L255.35 125.44L259.88 128.4L254.49 129.56L254.93 135.21L250.88 131.58L246.91 135.66L247.25 129.97L241.85 129.41L246.33 125.95L243.56 121.17L248.8 122.54L250.76 117.14L252.81 122.32Z" fill="white"/>
<path d="M234.25 143.7L237.23 143.86L235.19 146.24L235.84 149.26L233.12 148.07L230.53 149.77L230.9 146.66L228.65 144.69L231.6 143.95L232.79 141.03L234.25 143.7Z" fill="white"/>
<mask id="mask1_801_2074" style="mask-type:luminance" maskUnits="userSpaceOnUse" x="21" y="15" width="158" height="90">
<path d="M178.25 15.26H21.3398V104.52H178.25V15.26Z" fill="white"/>
</mask>
<g mask="url(#mask1_801_2074)">
<path d="M189.85 23.29L11.97 121.25L5.54004 104.25L183.43 6.29001L189.85 23.29Z" fill="white"/>
<path d="M187.71 17.53L100.16 65.74L97 57.38L184.56 9.16L187.71 17.53Z" fill="#A01212"/>
<path d="M98.0999 69.34L10.5499 117.55L7.3999 109.18L94.9399 60.97L98.0999 69.34Z" fill="#A01212"/>
<path d="M178.08 118.81L9.26025 17.72L17.2103 0.850006L186.04 101.95L178.08 118.81Z" fill="white"/>
<path d="M180.81 113.13L97.71 63.38L101.63 55.08L184.72 104.83L180.81 113.13Z" fill="#A01212"/>
<path d="M94.07 63.79L10.98 14.04L14.89 5.73001L97.99 55.49L94.07 63.79Z" fill="#A01212"/>
<path d="M113.46 12.14L83.6599 12.28L80.0898 113.61L109.88 113.47L113.46 12.14Z" fill="white"/>
<path d="M185.36 45.25L10.9402 46.08L9.74023 80.07L184.16 79.24L185.36 45.25Z" fill="white"/>
<path d="M185.14 51.54L10.7202 52.37L9.97021 73.61L184.39 72.79L185.14 51.54Z" fill="#A01212"/>
<path d="M106.29 12.17L90.8503 12.24L87.2803 113.58L102.71 113.51L106.29 12.17Z" fill="#A01212"/>
</g>
</g>
</svg>
