<svg width="127" height="127" viewBox="0 0 127 127" fill="none" xmlns="http://www.w3.org/2000/svg">
<circle cx="63.5" cy="63.5" r="63.5" fill="#00247D"/>
<mask id="mask0_703_1749" style="mask-type:alpha" maskUnits="userSpaceOnUse" x="0" y="0" width="127" height="127">
<circle cx="63.5" cy="63.5" r="63.5" fill="#00247D"/>
</mask>
<g mask="url(#mask0_703_1749)">
<path d="M41.3836 97.1145L37.6524 100.527L38.0218 95.5095L32.999 94.7508L37.1913 91.9094L34.6601 87.5477L39.518 89.0228L41.3836 84.3406L43.2523 89.0228L48.1102 87.5477L45.5759 91.9094L49.7712 94.7508L44.7484 95.5095L45.1179 100.527L41.3836 97.1145ZM99.2452 47.358L96.8055 49.5887L97.0468 46.3061L93.7583 45.8103L96.5033 43.9514L94.8483 41.098L98.0238 42.0622L99.2452 39.0002L100.47 42.0622L103.648 41.098L101.99 43.9514L104.732 45.8103L101.447 46.3061L101.688 49.5887L99.2452 47.358ZM87.0317 65.4941L84.592 67.7279L84.8332 64.4452L81.5447 63.9495L84.2897 62.0875L82.6348 59.2341L85.8103 60.1984L87.0317 57.1364L88.2561 60.1984L91.4346 59.2341L89.7767 62.0875L92.5186 63.9495L89.2332 64.4452L89.4744 67.7279L87.0317 65.4941ZM114.512 59.4487L112.072 61.6825L112.314 58.3999L109.025 57.9041L111.77 56.0422L110.115 53.1887L113.291 54.153L114.512 51.091L115.737 54.153L118.915 53.1887L117.257 56.0422L119.999 57.9041L116.714 58.3999L116.955 61.6825L114.512 59.4487ZM99.2452 101.766L96.8055 104L97.0468 100.718L93.7583 100.222L96.5033 98.3599L94.8483 95.5064L98.0238 96.4707L99.2452 93.4087L100.47 96.4707L103.648 95.5064L101.99 98.3599L104.732 100.222L101.447 100.718L101.688 104L99.2452 101.766ZM108.558 66.8181L109.456 68.6196L111.462 68.9067L110.011 70.3062L110.353 72.2861L108.558 71.3521L106.763 72.2861L107.105 70.3062L105.654 68.9067L107.66 68.6196L108.558 66.8181Z" fill="white"/>
<path d="M75.8628 59.4328V0H7.28653C5.82357 0 4.52519 0.205729 4.52519 0.205729L4.5069 8.22458L-7.97398 8.20629C-7.97398 8.20629 -8.16599 8.47603 -8.55459 9.1435C-10.1606 11.9229 -11.0043 15.077 -11.0005 18.287V59.4328H75.8628Z" fill="#00247D"/>
<path d="M75.8628 0H65.206L43.8605 14.9451V0H21.0018V11.7448L4.52519 0.205729C1.77689 0.616268 -0.839263 1.65678 -3.11879 3.24594L18.3776 18.287H10.441L-6.57961 6.3593C-7.08155 6.94602 -7.5472 7.56283 -7.97398 8.20629L6.43159 18.287H-11.0005L-11.0005 41.1458H6.76076L-11.0005 53.7912L-11.0005 59.4328H4.23258L21.0018 47.6925V59.4328H43.8605V44.4877L65.2014 59.4328H75.8628L75.8628 50.1567L62.9933 41.1458H75.8628V18.287H62.9979L75.8628 9.27608L75.8628 0Z" fill="#EEEEEE"/>
<path d="M39.2888 0H25.5735V22.8588H-11.0005V36.574H25.5735V59.4328H39.2888V36.574H75.8628V22.8588H39.2888V0Z" fill="#CF1B2B"/>
<path d="M75.8628 0H69.1836L43.8606 17.7338V18.287H51.0429L75.8629 0.905206L75.8628 0ZM-3.11879 3.24594C-4.39872 4.13408 -5.5615 5.18012 -6.57961 6.3593L10.441 18.287H18.3731L-3.11879 3.24594ZM18.428 41.1458L-7.6447 59.4328H0.250714L21.0019 44.9037V41.1458H18.428ZM75.8629 58.5276V52.95L59.0068 41.1458H51.0383L75.8629 58.5276Z" fill="#CF1B2B"/>
</g>
</svg>
