<?xml version="1.0" encoding="UTF-8"?>
<svg id="Layer_1" data-name="Layer 1" xmlns="http://www.w3.org/2000/svg" xmlns:xlink="http://www.w3.org/1999/xlink" viewBox="0 0 889.96 270.26">
  <defs>
    <style>
      .cls-1 {
        fill: #fbf1d9;
      }

      .cls-2, .cls-3 {
        fill: none;
      }

      .cls-3 {
        stroke: #030303;
        stroke-dasharray: 18 18;
        stroke-linecap: round;
        stroke-width: 5px;
      }

      .cls-4 {
        fill: #ec1c24;
      }

      .cls-5 {
        clip-path: url(#clippath);
      }
    </style>
    <clipPath id="clippath">
      <rect class="cls-2" x="10.14" y="18.3" width="124.21" height="104.62" transform="translate(-13.99 17.99) rotate(-12.95)"/>
    </clipPath>
  </defs>
  <path class="cls-3" d="M861.84,79.76c-30,32-52,97.13-266,164-30,9.38-122,24-151,0s-10.5-64,29-64c42.5,0,59,75-48,88-82,0-315-52-337-142"/>
  <path class="cls-4" d="M838.68,41.78c-11.03-18.39,2.21-41.78,23.65-41.78h0c21.29,0,34.55,23.09,23.83,41.48l-23.49,40.27-23.99-39.98Z"/>
  <circle class="cls-1" cx="862.67" cy="25.89" r="16.35"/>
  <g class="cls-5">
    <path class="cls-4" d="M96.47,53.15l-1.36-5.91c-.23-1-1.23-1.63-2.23-1.4-1,.23-1.63,1.23-1.4,2.23l.4,1.73c.32,1.4-.99,2.62-2.36,2.2l-6-1.83c-.64-.19-1.12-.72-1.27-1.37l-1.3-5.65c-.23-1-1.23-1.63-2.23-1.4-1,.23-1.63,1.23-1.4,2.23l.34,1.46c.32,1.4-.99,2.62-2.36,2.2l-.82-.26c-.64-.19-1.12-.72-1.27-1.37l-3.15-13.7c-.05-.21-.13-.41-.25-.59l-7.27-11.31c-.95-1.47-3.21-.95-3.42.79l-1.6,13.35c-.03.22-.01.43.04.64l3.15,13.7c.15.65-.06,1.33-.54,1.79l-.64.59c-1.05.98-2.76.45-3.08-.95l-.34-1.46c-.23-1-1.23-1.63-2.23-1.4-1,.23-1.63,1.23-1.4,2.23l1.3,5.65c.15.65-.06,1.33-.54,1.79l-4.6,4.27c-1.05.98-2.76.45-3.08-.95l-.4-1.73c-.23-1-1.23-1.63-2.23-1.4-1,.23-1.63,1.23-1.4,2.23l1.36,5.91c.15.65-.06,1.33-.54,1.79l-27.74,25.68c-.49.45-.69,1.13-.54,1.79l.3,1.29c.28,1.21,1.65,1.82,2.73,1.21l29.69-16.7c.17-.1.35-.16.54-.2l17.86-3.64c.99-.2,1.97.42,2.19,1.41l3.17,13.77c.03.13.07.26.13.38l6.9,14.57c.37.78.16,1.72-.52,2.26l-14.52,11.49c-.48.38-.74.98-.7,1.58l.15,2.31c.09,1.38,1.6,2.19,2.79,1.5l17.18-9.92s1.14,3.12,1.45,3.05c.24-.05-.03-3.37-.03-3.37l19.79,1.42c1.38.1,2.38-1.28,1.86-2.57l-.87-2.15c-.23-.56-.72-.99-1.32-1.12l-18.08-4c-.85-.18-1.46-.94-1.46-1.8l-.16-16.12c0-.14-.02-.26-.05-.4l-3.17-13.77c-.23-.98.37-1.97,1.36-2.22l17.65-4.53c.19-.04.38-.07.57-.05l34.01,2.06c1.24.07,2.21-1.07,1.93-2.28l-.3-1.29c-.15-.65-.64-1.17-1.27-1.37l-36.08-11c-.64-.19-1.12-.72-1.27-1.37h-.04Z"/>
  </g>
</svg>