<svg width="127" height="127" viewBox="0 0 127 127" fill="none" xmlns="http://www.w3.org/2000/svg">
<mask id="mask0_137_1789" style="mask-type:alpha" maskUnits="userSpaceOnUse" x="0" y="0" width="127" height="127">
<circle cx="63.5" cy="63.5" r="63.5" fill="#D9D9D9"/>
</mask>
<g mask="url(#mask0_137_1789)">
<path fill-rule="evenodd" clip-rule="evenodd" d="M20.7368 -9V127H105.737V-9H20.7368Z" fill="white"/>
<path fill-rule="evenodd" clip-rule="evenodd" d="M-22 -9V127H31V-9H-22Z" fill="#EC1C24"/>
<path fill-rule="evenodd" clip-rule="evenodd" d="M150 -9H96V127H150V-9Z" fill="#EC1C24"/>
<path fill-rule="evenodd" clip-rule="evenodd" d="M63.4995 94H64.5931L64.2421 79.7512L65.246 78.9021C69.7845 79.4335 73.8482 79.9138 78.3802 80.4582L77.2322 76.5629C77.0475 75.8773 77.308 75.1323 77.8233 74.7152L91 63.6974L88.269 62.3745C87.072 61.9333 87.4091 61.2421 87.8358 59.5709L89.8437 52.0405L82.1974 53.6959C81.4474 53.813 80.9515 53.3234 80.8425 52.8608L79.8524 49.3176L73.802 56.2943C72.9422 57.4119 71.2022 57.4119 71.7452 54.8275L74.3303 40.6948L70.8641 42.5463C69.8879 43.1027 68.9191 43.1956 68.3668 42.197L63.4995 33L58.6304 42.1951C58.0883 43.1938 57.1121 43.1037 56.1414 42.5463L52.6752 40.6948L55.2621 54.8256C55.7978 57.4128 54.0578 57.4128 53.1979 56.2943L47.1476 49.3176L46.1631 52.8608C46.0458 53.3234 45.559 53.813 44.8082 53.6978L37.1554 52.0405L39.1633 59.569C39.5964 61.2393 39.9335 61.9333 38.7366 62.3764L36 63.6974L49.1767 74.7133C49.6994 75.1295 49.9663 75.8792 49.7807 76.5629L48.6253 80.4582C53.1573 79.9147 57.2211 79.4363 61.7595 78.9021L62.7634 79.7512L62.4143 94H63.5005H63.4995Z" fill="#EC1C24"/>
</g>
</svg>
