<svg width="333" height="314" viewBox="0 0 333 314" fill="none" xmlns="http://www.w3.org/2000/svg">
<path d="M176.024 271.89L175.857 271.824L175.691 271.89L175.558 272.122L172.96 275.007L172.727 275.206L172.294 275.372L171.995 275.438H171.062L170.463 275.537L169.963 275.803L169.53 276.201L169.131 276.864L168.631 278.356L168.698 278.422L168.798 278.555L168.864 278.787L168.764 279.085L168.631 279.185L168.265 279.218H168.198L167.965 280.113L167.899 280.71L167.666 281.075L166.733 281.439L166.001 281.605L165.668 281.572L165.401 281.406L164.802 280.975L164.502 280.876L163.836 281.042L162.671 281.738L161.905 281.771L161.339 281.672L161.172 281.141L161.272 279.616L161.205 278.953L161.072 278.323L161.039 277.66L161.305 276.864L160.406 276.333L157.409 276.068L157.542 275.372V275.305L157.476 274.344L157.043 272.354L156.91 271.956L156.543 271.128L156.41 270.696L156.21 269.072L156.077 268.707L155.611 268.375L155.145 268.475L154.679 268.674L154.246 268.707L153.846 268.475L153.247 267.779L152.88 267.447L152.447 267.314H152.148L151.715 267.248H151.515L151.115 266.95L150.916 266.618L150.616 265.259L149.883 263.8L149.384 262.374L149.351 261.147L149.517 260.981V260.948L149.917 260.484L150.083 260.318L150.116 260.252V260.119L149.384 259.755L149.251 259.158L149.351 258.461L149.151 257.599L148.685 257.334L148.385 257.533L147.919 257.831L147.519 258.097H146.82L144.555 256.87L143.39 256.439L142.691 256.538V256.605V256.704H142.524H142.491H142.358V256.737L142.291 256.837L142.191 256.903L142.091 257.002L141.925 257.135L141.525 257.5L141.092 257.566L140.493 257.069L140.326 256.77L140.093 256.041L139.993 255.776L139.627 255.51L138.928 255.378L138.561 255.212L137.596 254.383L137.129 254.151L135.231 253.786L134.832 253.322L135.032 252.46L133.733 251.631L133.466 251.465L133.267 251.299L132.834 251.2L132.867 250.636V250.504V250.404L134.665 246.89L138.461 246.094L140.293 244.734L143.223 243.375L143.523 242.015L143.556 239.595L143.057 233.56L143.323 232.566L143.989 232.466L144.655 232.134L144.689 231.306L144.356 230.443L144.755 229.382L145.654 229.184L150.05 229.217L149.684 227.526L148.718 226.498L147.752 225.735L146.953 224.641L146.354 222.85L147.086 220.894L147.619 217.91L148.418 216.219L150.782 214.694L151.016 213.003L150.616 212.141L150.416 211.046L150.649 210.317L151.016 209.853L152.048 206.205L153.58 205.443L157.842 205.31L158.841 204.846L159.773 204.183L160.839 204.382L161.771 205.343L165.734 207.465L167.699 207.863H170.096L171.129 206.968L173.16 207.333L174.992 208.991L177.822 213.5L178.821 213.798L181.851 213.633L185.148 215.291L187.712 215.788L188.112 216.02L188.212 216.551V217.114L188.078 217.512L186.014 217.844L184.882 219.999L185.714 220.96L187.979 221.624L189.011 222.419L189.877 224.276L191.309 226.034L190.076 226.232L188.012 227.957L187.412 229.283L188.445 229.847L190.509 230.145L191.375 230.477L191.575 231.505L191.642 232.333L187.812 234.721L186.88 234.887L185.181 234.754L183.516 235.019L180.852 237.075L180.086 237.241L179.287 237.274L177.622 236.312L176.823 237.506L175.957 239.197L174.659 241.054L172.627 240.755L171.695 241.518L173.293 243.11L174.692 245.066L167.532 253.09L166.866 254.052L166.2 255.444L165.867 257.002L166.467 257.798L167.266 257.865L167.932 258.694L167.999 260.252L168.898 261.877L170.429 262.473L171.029 263.568L171.495 265.027L172.461 265.922L173.593 266.452L175.658 266.817L175.558 268.011L175.025 269.072L174.792 270.033L175.158 270.862L175.857 271.36L176.024 271.89Z" fill="white" stroke="#C41E2D" stroke-width="2" stroke-linecap="round" stroke-linejoin="round"/>
<path d="M176.024 271.89L175.857 271.36L175.158 270.862L174.792 270.033L175.025 269.072L175.558 268.011L175.658 266.817L173.593 266.452L172.461 265.922L171.495 265.027L171.029 263.568L170.429 262.473L168.898 261.877L167.999 260.252L167.932 258.693L167.266 257.865L166.467 257.798L165.867 257.002L166.2 255.444L166.866 254.051L167.532 253.09L174.692 245.066L173.293 243.11L171.695 241.518L172.627 240.755L174.659 241.054L175.957 239.197L176.823 237.506L177.622 236.312L179.287 237.274L180.086 237.241L180.852 237.075L183.516 235.019L185.181 234.754L186.88 234.887L187.812 234.721L191.642 232.333L191.575 231.504L191.375 230.477H194.206L195.404 231.107L196.403 232.168L198.968 232.963L201.265 234.522L202.664 237.241L203.163 239.429L203.696 240.523L205.061 242.446L205.628 243.64L207.859 244.966L211.821 245.099L212.72 244.137L212.854 243.64L213.22 243.043L214.186 242.579L214.619 242.148L214.718 241.916L214.752 241.418L214.852 241.186L214.985 241.087H215.251L215.351 241.021L215.984 240.391L216.184 239.562L216.35 239.296L217.516 240.391L218.015 240.159L218.415 239.727L218.814 239.462L219.281 239.761L219.713 239.495L220.546 239.429L220.812 239.263L221.112 238.865L221.378 238.633L221.678 238.534L223.909 238.467L224.375 238.335L224.708 238.036L225.008 237.738L225.275 237.473L226.54 236.876L226.84 236.81L227.273 237.009L227.539 237.34L227.839 237.605L228.371 237.473V237.406L228.904 236.677L229.104 236.511H229.271L229.37 236.412L229.437 236.014L229.57 235.749L229.937 235.583L230.303 235.251L230.469 234.588L230.736 234.82L230.936 234.853L231.269 234.588L231.302 234.455L231.269 234.223V234.024L231.368 233.925L231.801 233.958L231.468 237.904L230.569 240.159L229.437 242.082L229.237 244.734L230.07 251.797L229.803 253.886L229.77 255.676L230.07 256.24L230.303 256.87L230.936 257.632L231.801 257.699L232.934 258.296L233.333 259.655L230.336 261.943L229.803 263.103L230.702 263.932L233.966 265.325L235.764 267.281L236.83 270.531L236.93 272.155L236.763 273.78L237.296 277.162L238.395 280.246L238.428 280.345V280.378L237.895 280.61L237.429 280.478L236.33 280.71H235.831L232.867 279.881L231.169 278.986L230.769 278.886L230.236 279.251L229.271 280.644L228.771 281.141L228.105 281.24L227.639 280.942L227.206 280.445L226.673 280.08L226.207 280.047L224.975 280.279L224.509 280.511L223.909 281.174L224.276 281.605L224.975 282.036L225.341 282.733L225.075 283.164L224.542 283.263H223.876L223.41 283.363L222.81 283.959L221.811 285.418L221.145 285.982L220.446 286.247L219.88 286.148L219.414 285.783L218.914 285.252L218.348 284.855L217.882 284.788H217.349L216.683 284.689L216.184 284.357L213.52 281.141L213.053 281.075L211.888 281.24L211.255 281.141L210.956 281.174L210.656 281.34L210.19 281.937L209.823 282.268L209.124 282.534L208.458 282.368L205.894 281.042L205.428 281.174V281.97L203.863 282.003L202.631 281.539L202.264 281.572L201.965 281.804L201.865 282.069L201.798 282.5L201.632 283.164L201.432 283.794L201.265 283.993L198.934 284.225L198.468 284.457L197.835 285.252L197.536 285.518L196.87 285.451L196.77 285.385L196.603 285.617L196.037 286.91L195.871 287.441L195.671 287.971L195.271 288.402L195.105 290.027L194.805 291.188L194.206 291.619L193.207 291.154L191.642 289.662L190.809 289.231L189.843 289.364L189.277 289.762L188.711 290.359L188.278 290.79L187.612 291.055L186.214 290.956L185.448 290.657L185.048 290.127L185.181 289.53L186.314 287.673L186.447 287.54L186.647 287.507L186.813 287.408L186.913 287.142L186.846 286.944V286.91L186.613 286.678H186.58L186.547 286.546L186.114 286.247L186.014 286.081L186.047 285.916L186.28 285.551L186.314 285.352L186.147 283.13L185.981 282.368L185.714 281.506V281.473L185.414 281.274L184.415 281.672L183.816 281.738L183.15 281.672L181.418 281.075L181.485 280.544L181.452 279.815L181.518 279.549L181.652 279.251H180.453L179.82 279.085L179.287 278.687L179.121 278.356L178.655 276.864L178.088 274.543L177.722 273.614L177.023 273.15L176.79 272.885L176.29 271.99L176.024 271.89Z" fill="white" stroke="#C41E2D" stroke-width="2" stroke-linecap="round" stroke-linejoin="round"/>
<path d="M238.428 280.378V280.345L238.395 280.246L237.296 277.162L236.763 273.78L236.929 272.155L236.83 270.531L235.764 267.281L233.966 265.325L230.702 263.932L229.803 263.103L230.336 261.943L233.333 259.655L232.933 258.296L231.801 257.699L230.935 257.633L230.303 256.87L230.07 256.24L229.77 255.676L229.803 253.886L230.07 251.797L229.237 244.734L229.437 242.082L230.569 240.159L231.468 237.904L231.801 233.958L231.934 233.925L233.766 232.3L234.332 232.566L235.098 232.4L235.897 231.936L236.463 231.339L236.164 230.576L236.03 230.377L238.927 229.084L240.859 228.587L241.425 228.122L242.357 226.995L242.724 226.266L242.89 225.337L243.09 224.608L244.522 222.917L245.388 221.458L245.92 221.093L246.72 220.96L247.252 220.662L247.719 219.966L248.085 219.104L248.285 218.374L248.551 216.484L248.485 214.727L248.418 214.097L252.381 216.783L254.645 216.915L256.643 215.523L257.842 215.456L259.007 215.887L260.073 216.551L261.039 217.413L260.606 218.606L259.24 221.193L259.807 222.187L266.833 223.978L271.595 226.531L271.894 226.962L271.861 227.592L271.928 228.255L272.627 229.581L272.993 230.742L272.161 231.206L271.228 231.107L270.263 231.405L269.53 232.4L269.031 233.394L269.23 234.555L270.03 235.749L271.095 236.246L275.291 235.417L276.09 235.981L275.624 236.246L274.592 236.511L274.891 237.208L279.021 238.368L285.814 238.6L288.112 238.103L290.076 236.544L292.54 233.726L293.34 233.361L295.071 233.196L297.302 233.461L299.2 234.654L300.166 236.113L303.196 237.904H303.23L303.196 237.97V238.003L303.13 238.037L302.897 238.103L302.697 238.202H302.63L302.597 238.368L302.53 238.567L302.464 238.766L302.431 238.799L302.397 238.932V238.965H302.364L302.164 239.064L302.031 239.098L301.931 239.164L301.831 239.197H301.798L301.731 239.33L301.665 239.429L301.631 239.495L301.598 239.562L301.565 239.595L301.531 239.661L301.398 239.926L301.332 239.993L301.298 240.059L301.099 240.391L301.065 240.424L300.599 240.954L300.532 240.988L300.199 241.186V241.22L300.1 241.286L300.033 241.352L299.9 241.419L299.833 241.485L299.567 241.684L299.367 241.816V241.85H299.334L299.3 241.883L299.267 241.916L299.167 241.982L299.101 242.049L299.067 242.082L298.934 242.214H298.901L298.834 242.281L298.734 242.38L298.634 242.446L298.601 242.48H298.568L298.435 242.546L298.335 242.612L298.168 242.712H298.135L298.068 242.778L297.968 242.811L297.735 242.944L297.602 243.01L297.569 243.043H297.535L297.369 243.242L297.069 243.64L296.969 243.74L296.936 243.806L296.836 243.939L296.503 244.204L295.571 245.232L295.471 245.265L295.304 245.397L295.238 245.464L295.071 245.596L294.871 245.729L294.805 245.795L294.772 245.829L294.705 245.895V245.928L294.472 246.127L294.405 246.193L294.372 246.26L294.305 246.326L294.239 246.425L294.172 246.492L293.972 246.691L293.872 246.757L293.806 246.856L293.773 246.89L293.639 247.022L293.539 247.155L293.406 247.287L293.273 247.453L293.206 247.553L293.073 247.685L293.007 247.752L292.907 247.884L292.873 247.951L292.807 248.017L292.64 248.05V248.083L292.507 248.15L292.341 248.249L292.307 248.315L292.274 248.448L292.241 248.481L292.008 248.581L291.974 248.614H291.908H291.874L291.775 248.547L291.741 248.581L291.775 248.68V248.813V248.912V249.012V249.144V249.211L291.708 249.244L291.608 249.343L291.475 249.443L291.375 249.542L291.308 249.575L291.242 249.675L291.142 249.807L291.042 249.973L290.975 250.106L290.875 250.238L290.776 250.404L290.709 250.471L290.443 250.769L290.376 250.802L290.176 250.902L289.943 251.001L289.843 251.034L289.81 251.299V251.465L289.61 251.664L288.711 253.09L287.579 253.952L286.38 255.278L283.117 260.053L281.851 261.379L281.685 261.744L281.452 262.672L281.352 262.905L281.285 262.938L281.185 263.07L281.052 263.236L281.019 263.302L280.519 263.468L280.253 263.667L279.953 263.999L278.088 267.381L277.988 267.48L277.955 267.513H277.922L277.722 267.547L277.522 267.58H277.456L277.422 267.613L277.156 267.978L277.089 268.077L276.59 268.177L276.257 268.475L276.057 268.873L275.524 270.332L273.226 273.415L272.494 275.14H272.461V275.173L272.494 275.206L272.527 275.272L272.56 275.339L272.594 275.471V275.504L272.627 275.604L272.694 275.803V275.869L272.727 275.969L272.794 276.167L272.827 276.201L273.06 276.864L273.26 277.56L273.46 279.516L273.559 280.047L273.626 280.312L274.026 280.909L274.692 281.605L274.858 281.97L274.991 282.699L275.391 286.91L275.291 287.607L274.958 288.469L274.891 288.502L274.825 288.601L274.758 288.767V288.867L274.725 288.999L274.692 289.165L274.725 289.198L274.359 290.624L273.859 291.619L273.693 292.182L273.892 292.415L274.026 292.348L274.425 291.818L274.891 292.182H274.858L274.758 292.216L275.724 292.912L276.623 294.072L277.189 294.47L278.521 295.233L278.887 295.697V296.095L278.621 296.99L278.588 297.62L278.721 298.051L279.22 298.88L279.254 298.98L279.287 299.146L279.121 299.477L278.954 299.875L278.355 299.61L277.655 299.013L277.123 298.714L276.79 298.615L276.223 297.819L275.957 297.587L275.924 297.554L275.724 297.521L275.624 297.488H275.591V297.521L274.925 297.72L273.959 297.62H273.826L273.46 297.653L273.193 297.687L272.527 297.62L271.795 297.09L270.662 295.863L270.196 295.697L270.063 295.664L269.43 296.261L268.365 295.763L266 295.664L264.901 295.332L263.37 293.774L262.737 293.542L261.039 293.608L259.64 293.144L259.407 292.978L259.34 292.68L259.44 292.381L259.407 292.05L259.074 291.685L258.841 291.652L258.108 291.718H257.809L257.476 291.552L256.477 290.922L254.345 290.525L253.48 289.895L253.28 288.436L252.913 286.811L252.048 285.385L250.949 284.357L249.317 283.562L248.218 282.534L247.652 282.235L247.053 282.335L246.52 282.799L246.087 283.329L245.787 283.528L245.321 283.164L244.289 281.605L243.789 281.075L243.49 280.975L243.023 281.075H242.79L242.491 280.843L241.924 280.312L241.625 280.08L241.059 279.947L238.894 280.179L238.428 280.378Z" fill="white" stroke="#C41E2D" stroke-width="2" stroke-linecap="round" stroke-linejoin="round"/>
<path d="M40.1265 186.908L40.6926 186.576L45.5211 184.09L46.3869 184.056L48.1518 185.582L49.0509 185.681L50.5827 183.028L51.5817 181.835L53.7795 181.072L58.0419 183.393L60.1731 182.863L63.5364 178.453L66.5001 172.683L67.1328 172.186L68.1984 171.854L69.1308 170.926L69.5637 169.666L70.1631 168.837L74.7252 169.699L75.5577 170.561L75.6576 172.252L77.3226 174.374L79.7202 173.844L81.5517 172.252L83.0502 169.865L85.6809 169.335L86.913 169.666L90.3096 171.523L90.8424 172.75L90.9423 174.308L92.241 176.629L95.1714 178.254L96.8364 180.077L100.3 181.304L106.56 180.21L107.692 177.624L108.958 177.359L112.521 177.392L115.851 178.287L118.848 180.243L118.548 181.636L118.148 182.83L117.416 183.294L116.983 184.322L117.149 186.411L117.882 188.201L119.647 188.599L121.512 188.234L122.644 188.566L123.743 189.428L122.877 191.45L123.243 196.391L123.643 198.778L122.611 199.375L121.578 199.64L120.546 199.574L119.547 199.906L118.781 200.735L117.016 204.78L116.683 205.94L116.483 207.2L116.017 208.626L115.052 209.289L113.62 211.146L112.521 213.633L110.023 217.346L107.859 221.491L107.159 224.144L106.061 226L104.229 226.299L102.664 227.526L100.466 232.93L100.333 233.494L99.5004 232.997L98.8011 232.897L98.2017 233.295L97.9686 233.395V233.925V234.058L98.1684 234.323L98.235 234.422L98.3016 234.522L98.9676 235.483L99.3006 236.345L99.5337 237.373L99.8001 238.269L100.366 238.865L101.132 239.297L101.665 239.893L101.998 240.722L102.031 241.883L102.431 242.38L102.464 242.844L102.497 243.01L102.298 243.408L101.931 243.275L101.798 243.076L101.665 242.877L101.598 242.811L101.565 242.712L101.465 242.513L101.265 242.38H100.832L100.766 242.513V243.076L100.699 243.242L100.4 243.275L99.8667 243.076H99.6003L99.234 243.342L98.7345 244.038L98.4348 244.27L98.1018 244.37L97.8687 244.436L97.7355 244.469L97.1361 244.403L96.5367 244.502L95.9373 245L95.8707 245.066L95.8374 245.099L95.7375 245.232L95.3046 245.895L94.9716 246.558L94.8051 246.79L94.7718 246.856L94.6386 247.022L94.6053 247.055L93.9393 247.553L93.8394 247.685L93.7395 247.818L93.1734 248.581L93.1401 248.614L93.0402 248.779L93.0069 248.813L91.7748 248.912L90.5094 248.249L89.4771 247.287L88.9443 246.591L88.7445 246.193L88.6446 245.994L88.3116 244.403L87.9786 243.507L87.0795 242.579L86.6799 241.883L86.247 241.286L85.4811 239.893L85.0482 239.263L84.3822 238.799L83.0169 238.302L82.4841 237.605L82.4175 237.174L82.4508 236.743L82.4175 236.312L82.2177 235.881L81.918 235.782H80.5527L80.4528 235.815L80.2863 235.881L80.1864 235.914L79.9866 236.08L79.7535 236.147L79.3539 235.815L79.2207 235.55L78.8211 234.356L77.8554 234.157L77.5557 233.328L77.7555 232.731V232.599L77.7222 232.499V232.4H77.7888L77.9553 232.367L77.922 232.234V232.168H78.1551L78.2217 232.135L78.1884 232.035H78.3882L78.5547 231.902L78.6546 231.836L78.8211 231.77L79.2873 231.405L79.8201 231.073L80.2863 230.676L80.3529 230.543L80.5194 230.079L80.9856 229.913L81.2187 229.979L81.9513 230.178L82.4841 230.079L82.6839 229.78L82.7172 229.747L82.7505 229.681L82.8837 229.548H82.917L83.3832 229.084L83.6496 228.719H83.5497V228.653V228.454L83.583 228.089L83.6496 227.857L83.7828 227.592L83.8494 227.459V227.294L83.7495 226.929L84.0492 226.796L84.6819 226.531V226.465L84.4155 225.636L81.8514 222.917L80.919 222.386L79.92 222.154L78.8211 222.121L78.6879 222.154L78.4548 222.187L78.2217 222.685L77.9886 223.282L77.8887 223.414L77.7222 223.646L77.6223 223.746L77.1228 223.845L76.6566 223.646L75.7242 222.917L74.4255 222.784L73.8261 223.381L73.7595 223.447L73.6263 223.58L72.594 224.575L72.5607 224.608L71.262 224.84L71.2287 224.674L71.1954 224.541L71.2287 224.376L71.262 224.243L71.5284 224.044L71.5617 223.978L71.6949 223.878L71.7282 223.812L71.7948 223.315L71.7282 223.116L71.6283 222.652L71.3619 222.022L70.9623 221.259L70.5627 220.894L70.0632 220.795L69.4305 221.06L69.1974 221.126L68.598 221.358L68.4981 221.392L68.265 221.491H68.1651H67.9653H67.4325L67.2327 221.425L65.7009 218.838L65.601 218.54L65.5344 218.242L65.0016 218.175L64.8018 218.142L64.7685 218.175L63.9027 218.374L63.5031 218.474L62.271 218.772L61.9713 218.673L61.7382 218.441L61.3386 217.844L61.0056 217.612L57.8088 216.484L57.3759 216.352L57.276 216.318L57.1428 216.252L56.4435 216.02L56.2437 215.954L56.0439 215.887L54.945 215.49L54.3123 215.556L53.7129 215.589L53.4132 215.954L53.1135 216.451L53.0802 216.484L52.7805 216.816L52.7472 216.783L52.3809 216.683L52.1811 216.285V215.821L52.281 215.357V214.893L51.9147 213.997L51.4485 213.6L50.9157 213.367L50.3163 212.903L49.9833 212.373L49.617 211.577L49.3506 210.748L49.2507 210.052L49.4505 209.19L49.7169 208.692L49.7502 208.228L49.284 207.432L48.4848 207.034L46.7532 207.001L46.4535 206.305L46.3203 205.575L45.954 205.41L45.8874 205.476L45.6876 205.609L45.5877 205.675L45.3213 206.305L45.2214 206.802L44.8551 206.869L44.4555 206.67L44.0892 206.305L43.8228 205.841L42.291 205.509L41.8914 205.111H41.7915V205.343H41.6583V205.377L41.4918 205.575L41.0589 205.907L40.959 205.94H40.8924L40.7259 206.04L40.5594 206.139L40.4262 206.305L40.5594 206.869L41.0589 207.233L41.4918 207.896L41.5251 209.256V209.289L41.4585 209.554L41.2587 209.753L41.1588 209.886L41.0589 210.052L41.0256 210.317L41.0589 210.483L41.0922 210.615L41.1255 212.074V212.273L41.0589 212.704L37.629 212.439L36.5301 212.737H36.1305L35.8641 212.704L35.8974 211.842L36.297 211.113L37.3959 209.919L38.8944 206.305L40.2597 202.89L40.3596 202.359V201.431L40.3929 200.967L40.5594 200.635L40.7925 200.403L40.9923 200.071L41.0589 199.475L41.0922 198.248L41.3586 196.921L41.7582 195.628L42.2577 194.6L42.1578 194.468L42.0246 194.335L42.1911 192.943L41.7582 191.981L41.0589 191.185L40.5261 190.224L40.4262 189.892L40.293 188.997V188.964L40.1265 186.908Z" fill="white" stroke="#C41E2D" stroke-width="2" stroke-linecap="round" stroke-linejoin="round"/>
<path d="M152.048 206.205L151.015 209.853L150.649 210.317L150.416 211.046L150.616 212.141L151.015 213.003L150.782 214.694L148.418 216.219L147.619 217.91L147.086 220.894L146.353 222.85L146.953 224.641L147.752 225.735L148.718 226.498L149.683 227.526L150.05 229.217L145.654 229.184L144.755 229.382L144.355 230.443L144.688 231.306L144.655 232.135L143.989 232.466L143.323 232.566L143.057 233.56L143.556 239.595L143.523 242.015L143.223 243.375L140.293 244.734L138.461 246.094L134.665 246.89L132.867 250.404V250.504V250.636L132.834 251.2L132.467 251.101L132.334 251.067L132.467 252.128L132.634 252.195L132.867 252.128H133.133L133.333 252.46L133.366 252.924L133.233 253.123L133.167 253.156L132.234 253.422L131.035 253.455L130.836 253.521L130.469 253.587L129.703 254.317L129.604 254.383L128.505 254.715L127.406 254.483L125.441 252.559L125.108 252.095L124.875 251.532L124.708 250.935L124.475 250.437L124.142 250.039L123.876 249.741L123.776 249.476L123.876 249.211L124.142 248.978L124.176 248.945V248.912V248.879L124.142 248.813L123.743 248.713L122.91 248.315L122.511 248.216L122.178 248.282L121.945 248.448L121.612 248.481L121.145 248.282L119.68 246.425L119.614 246.094L119.847 245.596L119.98 245.53L120.18 245.431H120.479L121.645 245.397L122.444 245.066L122.877 244.801L123.41 244.502L123.743 244.303L124.176 243.905L124.342 243.773L124.609 243.076L124.142 242.181L123.843 241.883L123.776 241.385L123.809 240.954L124.142 240.092L124.209 239.926L124.242 239.794V239.661L124.142 239.562L123.61 238.832L123.443 238.667L122.91 238.468L122.777 238.534L122.71 238.6L122.644 238.932L122.477 239.297L122.011 239.96H121.978L121.845 240.159L121.778 240.258L121.678 240.391L121.578 240.523L121.045 240.954L120.346 241.153L118.015 240.722H117.982L117.649 240.656L116.284 240.789H116.217L115.684 241.452L115.318 241.883L115.185 241.982L115.018 242.015L114.852 241.982L114.685 241.883L114.585 241.518L114.419 240.988L113.753 240.457L113.087 240.523L112.92 240.921L112.854 241.153L112.754 241.385L112.354 241.087L112.154 240.59L112.088 239.993L112.121 239.396L111.988 239.263L111.855 239.131L111.755 238.965L111.688 238.799L112.088 238.633H111.988V238.468L111.622 238.302L110.19 238.335L109.457 238.136L108.391 237.473L108.125 237.141L107.925 236.743L107.725 236.113V236.047L107.626 235.616L107.692 235.483L107.359 235.384L106.427 235.55H106.027L105.628 235.351L104.928 234.754L104.595 234.555L101.498 233.693L100.799 233.759L100.333 233.494L100.466 232.93L102.664 227.526L104.229 226.299L106.06 226L107.159 224.144L107.859 221.491L110.023 217.346L112.521 213.633L113.62 211.146L115.051 209.289L116.017 208.626L116.483 207.2L116.683 205.94L117.016 204.78L118.781 200.735L119.547 199.906L120.546 199.574L121.578 199.64L122.611 199.375L123.643 198.778L124.675 198.712L125.674 199.242L126.074 200.27L126.24 201.431L127.839 202.724L129.77 202.823L133.333 201.497L136.796 199.441L137.462 200.668L138.361 201.365L145.121 203.122L147.253 203.056L147.652 202.724L147.919 202.227L148.285 201.994L149.084 202.989L149.783 204.349L152.048 206.205Z" fill="white" stroke="#C41E2D" stroke-width="2" stroke-linecap="round" stroke-linejoin="round"/>
<path d="M288.644 143.638L288.411 143.837H287.878L286.913 143.273L286.347 143.107L285.947 143.306L285.481 143.605L285.015 143.77L284.515 143.472L284.582 143.24L284.748 142.709L284.881 142.444L284.049 141.416L283.483 141.085L282.85 141.449L282.584 140.322L281.884 139.659L280.985 139.36L278.621 139.692L273.926 138.73L272.327 138.797L271.595 138.631L271.228 138.034L270.729 138.266L270.096 137.802L269.597 137.073L269.397 136.542L269.563 134.917L269.497 134.685L269.064 134.619L268.831 134.387L268.664 133.956L268.564 133.326L268.598 132.895L268.731 132.497L268.831 132.099L268.764 131.602L268.531 131.303L267.865 130.739L267.232 129.877L265.567 128.087L265.634 126.993L265.567 125.169L265.201 123.412L265.001 120.825L264.535 118.471L262.77 118.969L261.072 119.831L260.14 119.168L259.374 118.107L259.84 115.354L258.375 114.26L256.876 115.885L254.578 116.217L252.447 115.089L251.648 113.63L251.215 111.807L250.782 110.58L250.05 109.817L248.884 109.187L248.118 107.795L247.985 106.535L248.485 105.639L247.086 104.545L245.421 104.313L243.823 103.451L242.724 101.296L241.025 97.0848L240.259 91.2822L239.793 89.3259L239.094 87.6681L238.694 85.9107L240.892 84.9492L245.221 85.2144L247.119 84.5513L247.985 83.855L248.951 83.4239L251.215 83.0924L256.443 79.5445L259.374 76.2288L267.765 70.9899L269.53 69.1663L270.562 66.2153L271.795 63.8611L271.894 61.4738L268.698 56.9975L267.166 55.5055L266.833 54.0797L266.666 52.5545L263.636 48.4761L266.467 44.4309L273.226 43.5025L275.224 42.143L276.956 40.3194L277.689 37.8326L277.622 37.4347L277.655 37.3684L278.421 37.0037L279.054 37.1031L280.885 38.0315L281.185 38.0647L281.884 37.9321L282.184 37.9984L282.517 38.33L282.684 38.7278L282.817 39.1257L283.017 39.4573L283.35 39.6894L284.382 39.822L284.582 40.0873L284.482 40.5847L284.282 41.1815V41.712L284.848 42.4746H285.514L286.247 42.1762L286.846 42.0436L287.412 42.3088L289.277 43.8672L290.443 44.5635L292.873 45.4919L293.473 46.0225L294.039 46.4867L294.339 46.9509L294.871 47.9787L295.138 48.3766L295.471 48.6087L296.104 48.7745L296.403 48.9403L296.903 49.6698L297.302 50.6976L297.635 51.8581L297.868 52.9523L298.301 55.3397L298.335 56.5002L297.868 57.296L297.502 57.5944L297.336 57.7933L297.202 58.0254L297.169 58.5559L297.302 59.0201L297.569 59.418L297.868 59.6833L298.068 59.8822L298.135 60.1475V60.4459L298.002 60.7443L298.035 62.2364L298.335 63.4632L298.734 64.6569L299.067 65.95L299.334 68.6358L299.667 69.6968L300.399 70.7578L300.466 73.9078L301.165 77.4225L303.729 85.3139L305.161 88.2649L305.761 89.8565L306.993 94.6311L307.525 96.0569L308.058 96.7863L308.358 97.4826L308.591 98.2121L308.957 99.0079L309.49 99.6047L310.023 100.003L310.323 100.599L310.256 101.826L309.99 102.523L309.623 103.153L309.324 103.816L309.29 104.81L309.557 105.673L310.456 106.833L310.822 107.562L310.855 107.96L310.789 108.557V108.889L311.055 110.281V110.679L310.955 110.978L310.622 111.641L310.556 112.039L310.589 112.569L310.689 112.868L310.789 113.133L310.889 113.498L311.122 119.532L311.188 121.024L310.789 123.146L309.59 124.639L305.561 127.391L300.532 128.816L297.835 130.375L295.171 132.596L291.508 138.233L290.276 139.725L289.743 140.587L288.345 143.439L288.411 143.472L288.644 143.638Z" fill="white" stroke="#C41E2D" stroke-width="2" stroke-linecap="round" stroke-linejoin="round"/>
<path d="M277.622 37.4345L277.689 37.8324L276.956 40.3192L275.224 42.1429L273.226 43.5023L266.467 44.4307L263.636 48.4759L266.666 52.5543L266.833 54.0795L267.166 55.5053L268.698 56.9974L271.894 61.4736L271.795 63.8609L270.562 66.2151L269.53 69.1661L267.765 70.9898L259.374 76.2286L256.443 79.5443L251.215 83.0922L248.951 83.4238L247.985 83.8548L247.119 84.5511L245.221 85.2143L240.892 84.949L238.694 85.9106L235.031 86.209L234.299 86.6069L233.433 88.331L232.201 89.1931L230.836 89.3921L228.138 89.16L225.841 91.8789L223.143 92.741H220.246L218.048 94.0009L216.117 94.3988L213.952 94.3657L212.854 95.2609L211.855 96.4546L207.625 98.8751L206.527 99.2067L205.361 99.1072L204.429 99.8366L203.929 101.528L203.13 102.423L202.231 102.887L199.933 103.318L190.409 101.826L190.143 101.528L189.943 101.063L189.477 100.765L188.944 100.632L187.745 101.03L186.979 102.556L186.114 103.285L185.048 103.55L184.615 98.9745L183.05 95.0288L181.352 93.8352L177.922 92.9399L174.692 90.9836L172.361 90.221H171.795L171.095 89.9226L170.629 89.2263L169.697 87.5021L168.964 85.3137L166.333 80.2407L170.796 71.9513L171.861 70.7908L173.127 69.995L175.591 70.1608L177.289 69.3982L177.356 68.5693L177.689 68.0056L178.188 66.5467L178.721 66.0162L179.087 65.3198V64.4578L179.221 63.662L177.689 63.2309L174.725 63.4962L173.626 62.9657L174.226 60.9431L173.426 59.882L171.895 59.6831L170.429 58.821L169.43 57.13L168.864 54.9416L168.798 53.9469L169.264 53.2174L170.596 51.8911L171.062 51.0622L171.395 50.1006L171.095 48.8406L170.463 47.7465L169.797 45.757L169.996 43.9997L170.729 43.1707L173.426 43.5023L174.126 43.436V43.8007L173.859 44.066L173.626 44.5302L173.526 45.1602L173.493 45.9228L173.893 45.5249L174.425 44.0991L174.658 43.8007L174.825 43.6018L175.591 42.375L176.357 41.6455L176.756 41.4134L177.123 41.3139L179.487 39.8219L179.986 39.6229L181.185 39.4571L183.117 38.0314L183.55 37.8656L183.982 37.7993L184.249 37.5008L184.382 36.9372L184.615 36.4398L185.115 36.3403L185.048 36.1082L184.981 35.5446L184.915 35.3125L185.248 35.3456L185.381 35.2793L191.608 35.6109L203.33 36.2409L212.054 36.7051L220.779 37.1693L231.568 37.7329L244.688 38.4292L253.08 38.8934L261.472 39.3245L268.531 39.6892L274.225 39.9876L276.29 39.3245L276.856 38.8603L277.622 37.4345Z" fill="white" stroke="#C41E2D" stroke-width="2" stroke-linecap="round" stroke-linejoin="round"/>
<path d="M40.1265 186.908L39.9933 185.648L40.2597 185.051L39.96 184.388L39.3939 183.791L38.9277 183.426L38.2284 183.095L36.8298 182.697L36.1305 182.299L35.4978 181.835L33.4998 181.172L32.8338 180.475L32.7339 179.945L32.6673 179.613L32.9337 178.685L33.4998 177.723L33.8661 176.762L33.8328 175.502L33.5331 174.275L33.1335 173.413L31.6683 172.219L30.969 171.423L30.6693 170.163L30.5694 168.903L30.1365 168.34L29.6037 167.942L29.1042 167.179L29.0043 166.151L29.4039 165.322L31.1355 163.565L31.7016 162.803L32.1678 161.94L32.4009 160.979L32.5008 157.995L32.6673 157.531L33.3333 156.337L33.4665 155.873L33.4998 155.442L33.5997 154.977L33.8328 154.58L34.3989 153.883L32.4342 152.424L32.1345 151.695L32.301 150.435L32.634 149.54L32.7672 148.843L32.3343 148.147V147.849L32.9004 147.086L32.9337 146.058L32.4342 145.196L31.6017 144.831L30.7359 144.632L29.7036 144.102L29.0376 143.339L29.2374 142.444L28.6047 141.018L27.8721 138.863L27.7056 136.907L29.2707 135.547L30.0033 134.387L30.5028 133.226L30.3696 132.696L29.8035 132.165L30.0366 131.038L30.8691 129.247L29.9367 128.485L29.7702 128.286L30.5028 125.633L31.1688 124.638L33.7329 124.241L35.2647 123.611L37.629 120.262L39.5604 116.051L42.4908 114.426L47.5191 116.084L49.1175 115.885L50.9823 113.73L52.1145 111.541L51.282 111.409L50.7159 110.58L52.4142 110.513L57.5424 108.756H63.7695L65.268 107.662L67.9986 104.18L69.5637 102.92L71.2287 102.721L72.7272 103.053L73.5264 105.507L72.9936 107.861L72.3942 110.746L72.4941 113.929L69.5304 117.709L70.4628 118.571L71.1288 121.024L70.8291 121.787L70.263 122.185L67.3992 123.08L66.933 123.014L66.7332 123.478L66.6999 124.605L66.5667 125.666L66.6666 128.418L67.7322 131.336L68.0985 133.06L68.3316 134.884V136.343H67.5324L66.8997 136.807L68.1651 139.062L68.7645 140.521L68.8311 143.571L67.8654 146.456L67.6989 147.152L67.6323 147.915L67.2993 149.374L67.266 150.999L67.4991 152.557L68.1984 153.618L69.0309 154.447L70.6959 155.342L71.2287 156.867L71.928 158.127L73.0269 159.222H74.1258L74.6586 159.023L75.1581 159.321L75.1914 160.316L74.925 161.244L74.7918 162.935L75.2247 164.228L76.5234 165.124L77.922 165.555L80.1198 164.063L82.0845 166.218L83.0502 169.865L81.5517 172.252L79.7202 173.844L77.3226 174.374L75.6576 172.252L75.5577 170.561L74.7252 169.699L70.1631 168.837L69.5637 169.666L69.1308 170.926L68.1984 171.854L67.1328 172.186L66.5001 172.683L63.5364 178.453L60.1731 182.863L58.0419 183.393L53.7795 181.072L51.5817 181.835L50.5827 183.029L49.0509 185.681L48.1518 185.582L46.3869 184.056L45.5211 184.09L40.6926 186.576L40.1265 186.908Z" fill="white" stroke="#C41E2D" stroke-width="2" stroke-linecap="round" stroke-linejoin="round"/>
<path d="M72.9936 107.861L73.5264 105.507L72.7272 103.053L71.2287 102.721L69.5637 102.92L67.9986 104.18L65.268 107.662L63.7695 108.756H57.5424L52.4142 110.513L50.7159 110.58L51.282 111.409L52.1145 111.541L50.9823 113.73L49.1175 115.885L47.5191 116.084L42.4908 114.426L39.5604 116.051L37.629 120.262L35.2647 123.611L33.7329 124.241L31.1688 124.638L30.5028 125.633L29.7702 128.286L28.0053 126.329L26.2071 125.6L25.3413 124.406L24.7419 124.141L24.4422 123.843L23.4099 121.82L22.9437 121.256L19.7136 118.902L18.9144 118.438L17.9154 117.277L17.316 117.012L16.65 116.979L16.0173 116.78L15.4845 116.349L15.1515 115.653L15.9507 114.956L16.2504 114.36L16.3836 113.431L16.317 112.801L15.9507 111.011L15.7509 110.513V110.215L17.2161 109.121L19.0476 108.159L20.8458 106.733L21.7782 105.772L22.1778 104.877L22.2444 104.446L23.1768 101.627L23.1102 100.898L22.9104 100.168L22.8105 99.3725L22.8771 98.7094L23.1102 98.0794L23.4099 97.6483L23.7429 97.4494L23.9427 97.1178L24.7419 95.5926L24.3423 95.2279L24.2091 94.9294L23.7762 94.5315L23.5764 94.2331L23.4765 93.7358V92.8074L23.4099 92.3763L23.2101 91.4479L22.5774 88.4969L22.2777 85.8775L21.645 84.8164L21.312 83.7554L20.5794 82.6281L20.3796 81.6002L20.3463 80.4728L20.4129 78.616L20.3796 78.1187L19.7469 76.1624L19.2807 75.1677L19.4139 74.3719L19.3806 72.9461V72.913L19.647 72.8798L20.2131 72.6477L20.6127 72.283L20.646 71.8851L20.1132 71.5204L20.4129 71.3214L20.5128 71.1556L20.4129 70.9898L20.1132 70.8241L20.2797 70.4262L20.5794 70.6914L21.0123 70.9235L21.3786 71.1888L21.7116 72.1835L22.1445 72.5151L22.977 72.8798L23.5764 73.543L23.9094 73.8082L25.2414 74.0403L26.8731 74.6371L27.4392 75.0682L27.9054 75.7313L28.9044 77.6213L29.2374 78.0855L29.4039 77.9529L29.4372 77.1239L29.5704 76.6597L29.8368 76.3282L30.2364 76.0298L30.2031 75.8308V75.6319L30.2364 75.3335L29.9034 75.234L29.1375 75.1677L28.8045 74.9687L27.8721 72.714L28.0386 71.5867L28.8045 69.3983L29.1375 69.6967L29.4372 69.5972L29.7702 69.4314L30.2364 69.3983L30.0366 68.1051L30.1365 67.0773L30.3363 66.182L30.4362 65.2205H30.2364L30.1698 65.8173L29.9367 66.2152L29.2041 66.9446L29.4039 67.3094L29.1375 67.2099L28.9044 67.0441L28.7379 66.8783L28.5714 66.6131L28.7379 66.4473L29.0043 66.0826L29.2041 65.9168L28.8045 65.0547L28.0719 64.6236L24.7086 64.2921L24.2424 63.7615L24.642 62.7668L24.5421 62.6673H24.5088V62.601L24.4422 62.4352L24.1425 62.9326L23.9094 62.9989L23.643 62.8663L23.2767 62.7668L23.0436 62.8663L22.8105 63.1315L22.6107 63.4631L22.3776 63.7947L23.2767 63.9605L23.7429 64.1926L24.0093 64.5242L23.9427 65.1541L23.643 65.5852L23.2434 65.751L22.977 65.552L22.1445 66.0826L21.7449 66.2152L21.312 66.2483V66.6131L21.7116 66.7789V66.8783L21.312 66.9446L21.0123 66.9115L20.5461 66.6794L20.1798 66.6131L19.6803 66.2815L18.2484 64.1594L17.5158 63.861H17.4492L17.2161 63.0652L16.6833 62.4021L16.983 62.3358L17.2161 62.1368L17.7489 60.7774L18.2484 61.0095L18.5814 61.2747L19.4805 61.6395L22.4775 61.8716L23.6763 61.6395L24.8418 61.0095L27.0396 59.4179L35.0316 55.8701L41.9247 54.0464L50.3163 50.4986L55.7775 49.0397L61.7382 47.4481L67.599 44.7955L72.4608 44.1987L75.7908 43.0714L75.4245 43.4361L73.926 44.1324L74.5587 44.5966L77.2227 44.1324V43.8008H77.0229V43.4361H78.4548V43.1708L78.4215 43.1377H78.3549L78.255 43.0714L78.3216 42.2424L77.6223 42.2093L75.9906 42.7066L77.0229 42.2093L78.2883 41.3803L80.1531 39.192L79.7535 39.9546L79.0875 40.684L78.8211 41.0488L79.0875 40.9493L79.6536 40.8498L80.1198 40.6509L80.5527 40.1535L81.6183 39.6562L81.9846 39.192L81.6516 38.4293H81.0522L80.7858 38.7609L80.3196 39.192L81.6183 36.9704L85.1148 32.4942V32.7926L84.9483 33.3231L85.248 33.4557L85.7475 33.2568L86.1138 32.7926L86.3136 32.0963L86.1471 31.8973L85.7475 32.0631L85.3146 32.4942L85.914 31.2342L86.9796 30.2063L89.0442 28.9132L95.3379 27.9848L95.5377 27.9185L95.6043 28.0179L97.7022 32.2621L100.2 35.8431L101.132 37.733L101.365 40.2198L101.032 41.6124L100.233 42.4082L99.9999 43.3366L100.333 44.0992L100.899 44.895L101.032 46.155L100.533 46.8845L96.3369 47.9455L98.2683 53.7812L98.5014 56.5996V59.4179L99.8001 60.3463L100.533 61.2084L101.665 63.5294L102.497 64.2921L103.197 65.2868L103.763 66.4804L102.098 66.2815L100.599 66.9778L100.633 67.9725L101.232 68.2709L101.765 69.133L102.098 70.2272L101.199 71.8188L99.9333 73.1119L100.466 78.616L99.3339 78.2513L98.1684 78.2845L97.1028 78.7487L96.3036 80.1413L95.7042 81.7991L94.9383 85.0154L94.0392 85.2143L88.4781 85.0485L87.7788 86.0101L87.8121 88.0327L88.2783 89.8232L90.1764 91.68L92.4741 92.2437L93.573 92.8405L94.5387 94.0342L94.7052 95.4931L93.8061 96.6205L93.0735 97.8804L92.2077 98.7094L89.9766 99.4057L85.6143 101.959L83.1501 105.805L80.253 108.557L78.3882 109.287L76.4901 109.519L74.6586 108.424L72.9936 107.861Z" fill="white" stroke="#C41E2D" stroke-width="2" stroke-linecap="round" stroke-linejoin="round"/>
<path d="M288.644 143.637L288.877 143.836L289.21 144.334L289.31 144.964L289.044 145.859L289.743 146.29L291.908 146.854L292.374 146.688L292.774 147.086L294.638 147.782L295.271 147.848V148.147L295.071 148.611L295.138 148.711L295.571 148.512L295.97 148.711L296.237 148.976L296.503 149.042L296.936 148.512L297.069 148.744L297.369 149.009L297.569 149.241L298.068 148.744L298.168 149.108L298.102 149.705L297.968 149.871L298.801 151.529L299.4 151.728L300.832 151.695L301.398 152.026L301.598 152.424L301.765 152.822L301.931 153.12L302.231 153.253L302.597 153.485L302.697 154.082L302.73 154.646L302.997 155.243L303.43 157.099L303.763 157.928L303.296 158.26L302.897 158.89L302.331 160.249L302.131 161.145L302.098 162.736L301.898 163.267L302.031 163.333H302.064L302.098 163.399V163.598L301.765 163.83L301.631 164.858L301.298 165.289L301.765 166.151L302.331 166.914L301.998 168.041L301.398 168.605L300.766 169.003L300.266 169.6L300.133 169.931L300 170.462L299.833 171.589L299.933 171.821L300.166 172.186L300.233 172.484L299.933 172.617L299.833 172.75L299.933 173.048L300.1 173.38L300.266 173.612L299.866 174.076L299.667 174.209L299.4 174.242V174.606L299.767 174.971L299.8 175.435L299.633 176.762L299.733 177.458L300 178.121L300.666 179.248L300.466 179.282L300.266 179.248L300.632 180.011L301.099 180.21L301.531 180.442L301.631 181.105L301.698 181.404L301.898 182.067L302.364 182.398L302.564 182.465L302.93 182.597L302.963 182.63L303.363 182.896L302.863 183.857L302.897 183.89V184.089L302.93 184.156L302.963 184.222L303.23 184.62L304.162 185.979L304.395 186.543L304.062 186.709L303.996 186.808L303.929 186.908L303.896 186.974L303.829 187.04V187.173L303.796 187.538L303.862 187.737L303.896 187.836L303.962 188.068V188.101L303.996 188.201L303.829 188.267H303.796L303.596 188.334L303.43 188.4V188.433L302.897 188.964L302.497 189.693L302.331 190.323L302.53 191.351L302.997 191.583H303.03L303.563 191.616L304.096 191.948L304.229 192.213L305.261 194.534L305.328 194.667L305.661 195.396L305.761 195.595L305.927 195.794L306.46 196.424L306.959 196.756L307.259 196.954L307.858 197.319L307.992 197.385L308.724 198.181L308.791 198.214L308.824 198.281L308.957 198.413L309.091 198.513L309.424 198.878L309.557 199.143L309.757 199.441L309.59 199.541L309.257 199.707L309.224 199.773L309.157 200.138L309.224 200.303L309.324 200.535L309.357 200.602L309.59 201.099L310.389 202.326L310.656 202.956L310.989 204.979V205.277L310.855 205.642L311.089 205.841L311.488 205.973L311.854 206.239L312.187 206.736L312.254 207.134L312.287 207.565L312.454 208.195L312.92 208.957L314.951 210.847L315.118 210.914L315.484 211.113L316.417 211.643L316.883 211.908L316.949 211.942L317.216 212.074L317.249 212.107L317.482 212.207L317.515 212.273L317.848 212.771V212.804L317.482 213.633L316.583 213.832H316.017H315.884H315.85H315.584L314.951 214.13L314.152 213.666L313.32 213.765L312.987 214.03L312.62 214.296L312.254 215.125L312.287 215.688V215.821L312.321 216.02L312.52 216.285L312.754 216.65L313.486 216.981L314.152 217.048L314.319 217.081V217.379L314.285 217.413L314.252 217.479L314.119 217.81H314.086L314.019 218.043L313.919 218.208L314.052 218.407L314.086 218.474L314.119 218.54L314.352 218.938L315.051 219.369L315.085 219.402H315.118L315.184 219.435L315.784 219.601L315.984 219.634L315.817 220.728L315.984 221.458V221.557L316.017 221.624L316.05 221.723L316.117 221.922L316.183 222.088L316.217 222.187L316.716 223.348L316.816 223.58L316.383 224.342L316.117 224.807L316.283 226L316.417 227.061L316.65 227.658L316.783 227.791L316.75 227.923L316.383 228.454L315.817 229.051L315.751 229.084L313.852 230.079L313.786 230.642L313.819 231.571L313.786 232.168L313.619 232.698L313.12 233.859L312.987 234.223L311.388 234.886L305.894 234.953L304.995 235.251L304.861 235.284L304.329 235.55L303.929 235.947L303.596 236.644L303.23 237.904H303.196L300.166 236.113L299.2 234.654L297.302 233.461L295.071 233.195L293.34 233.361L292.54 233.726L290.076 236.544L288.112 238.103L285.814 238.6L279.021 238.368L274.891 237.207L274.592 236.511L275.624 236.246L276.09 235.981L275.291 235.417L271.095 236.246L270.03 235.749L269.23 234.555L269.031 233.394L269.53 232.4L270.263 231.405L271.228 231.107L272.161 231.206L272.993 230.742L272.627 229.581L271.928 228.255L271.861 227.592L271.894 226.962L271.595 226.531L266.833 223.978L259.807 222.187L259.24 221.192L260.606 218.606L261.039 217.413L260.073 216.55L259.007 215.887L257.842 215.456L256.643 215.523L254.645 216.915L252.381 216.783L248.418 214.097L248.251 213.069L247.486 210.151L247.419 209.687L247.352 209.521L247.219 209.455L247.086 209.322L247.019 209.057L247.053 208.758L247.119 208.593L247.219 208.526L247.252 208.361L247.452 206.305L247.352 205.376L246.82 204.945V204.614L247.019 204.581L247.286 204.448L247.519 204.249L247.652 203.984L247.519 203.321L246.786 201.497L246.553 199.939L246.287 199.077L246.22 198.712L246.253 198.148L246.353 197.75L246.62 197.054L247.186 194.07L247.552 193.274L247.819 193.042L248.152 193.009L248.085 191.981L248.451 190.522L248.651 189.162L247.452 187.704L247.519 186.543L248.218 185.946L248.951 184.951L248.984 182.962L248.052 182.863V182.531L248.518 182.001L248.385 181.404L247.852 180.575L247.785 179.878L247.819 179.315L247.719 178.917L247.252 178.585L246.953 178.552L246.22 178.884L245.687 178.95L244.122 178.618L243.29 178.221L242.824 177.69L242.457 177.06L242.424 176.563L242.724 175.303L243.823 175.004L244.888 175.469L247.086 175.8L249.25 175.037L249.983 174.341L250.183 173.247L248.684 170.893L249.85 169.268L251.515 168.24L250.449 166.649L249.717 164.825L249.583 163.532L248.984 162.272L248.518 160.912L248.318 159.652L250.449 158.061L252.747 157.398L257.143 157.431L261.272 156.602L262.804 156.9L263.869 156.569L266.733 154.414L267.898 154.281L271.228 154.579L272.893 153.22L273.06 152.49L273.26 151.86L273.759 151.33L274.292 150.965L275.524 151.264L279.087 153.087L280.253 152.623L281.252 151.363L282.118 149.341L284.981 145.13L285.947 143.306L286.347 143.107L286.913 143.273L287.878 143.836H288.411L288.644 143.637Z" fill="white" stroke="#C41E2D" stroke-width="2" stroke-linecap="round" stroke-linejoin="round"/>
<path d="M185.381 35.2794L185.248 35.3457L184.915 35.3125L184.982 35.5446L185.048 36.1083L185.115 36.3404L184.615 36.4399L184.382 36.9372L184.249 37.5009L183.983 37.7993L183.55 37.8656L183.117 38.0314L181.185 39.4572L179.987 39.623L179.487 39.8219L177.123 41.314L176.756 41.4135L176.357 41.6456L175.591 42.375L174.825 43.6019L174.659 43.8008L174.425 44.0992L173.893 45.525L173.493 45.9229L173.526 45.1603L173.626 44.5303L173.859 44.0661L174.126 43.8008V43.4361L173.426 43.5024L170.729 43.1708L169.997 43.9997L169.797 45.7571L170.463 47.7465L171.095 48.8407L171.395 50.1007L171.062 51.0623L170.596 51.8912L169.264 53.2175L168.798 53.9469L168.864 54.9417L169.43 57.1301L170.429 58.8211L171.895 59.6832L173.426 59.8821L174.226 60.9431L173.626 62.9657L174.725 63.4963L177.689 63.231L179.221 63.662L179.087 64.4578V65.3199L178.721 66.0162L178.188 66.5467L177.689 68.0057L177.356 68.5693L177.289 69.3983L175.591 70.1609L173.127 69.9951L171.861 70.7909L170.796 71.9514L166.334 80.2407L164.702 80.9702L161.272 81.1691L159.607 80.506L158.675 79.9091L156.677 77.8534L156.21 77.555L155.777 77.0576L155.211 76.726L152.747 76.3613L150.982 76.9913L149.85 77.7208L147.286 76.1955L141.858 75.3003L140.859 74.3719L139.96 73.2114L138.928 73.145L133.799 73.9077L129.97 73.145L129.137 73.775L127.905 76.0297L125.841 76.7924L124.875 77.7208L124.709 78.3839L124.575 79.0802V80.1744L122.677 80.937L118.481 79.8428L117.383 79.9423L116.517 81.1028L115.784 82.7275L114.885 85.9106L114.053 86.408L112.687 84.8164L111.089 83.9212L104.928 83.6559L103.163 82.5949L101.898 80.4065L100.466 78.616L99.9333 73.1119L101.199 71.8188L102.098 70.2272L101.765 69.133L101.232 68.2709L100.633 67.9725L100.599 66.9778L102.098 66.2815L103.763 66.4804L103.197 65.2868L102.497 64.292L101.665 63.5294L100.533 61.2084L99.8001 60.3463L98.5014 59.4179V56.5995L98.2683 53.7812L96.3369 47.9455L100.533 46.8844L101.032 46.155L100.899 44.895L100.333 44.0992L99.9999 43.3366L100.233 42.4082L101.032 41.6124L101.365 40.2198L101.132 37.733L100.2 35.843L97.7022 32.262L95.6043 28.0179L95.5377 27.9184L97.8021 27.0232L99.0675 26.7911L100.233 26.3932L103.13 23.2101L112.221 18.9328L123.676 16.7776L128.804 15.0202L136.863 14.2908H141.825L142.524 14.5229L143.59 15.4844L144.023 15.7165L144.655 15.8492L154.978 22.0164L156.843 24.4369L157.143 25.0337L157.476 25.8295V26.5258L156.943 26.7911L156.81 26.6253L156.677 26.2274L156.477 25.8627L155.944 25.4648L155.578 24.5032L155.078 23.8732L153.646 21.4196L153.347 21.287L152.281 21.088L152.015 20.9554L151.748 20.4912L150.882 20.1928L149.084 18.9328L147.319 18.0707L147.02 17.6728L146.054 16.9102L145.787 16.8107L145.421 16.9765L145.221 17.2418L144.788 18.7339L144.722 19.0654V19.828L144.888 20.027L145.621 20.3586L145.787 20.5575L146.154 21.1875L146.587 22.1491L146.553 22.5469L146.453 22.8785V23.2101L146.82 23.608L146.62 24.6027L146.986 25.0337L147.552 24.9343L148.052 24.2711L147.885 25.1332L148.118 25.8295L148.485 26.3932L149.251 28.7805L149.484 29.2779L149.384 30.4716V32.4942L149.584 34.4504L150.017 35.3125L150.483 35.4783L151.415 36.1746L151.881 36.3404L152.281 36.3736L152.814 36.5393L153.213 36.8046L153.413 37.2688L153.913 37.9983L159.008 39.623L160.14 39.7225L161.072 39.1919L161.339 39.4572L161.705 39.6561L162.537 39.8882L173.859 38.1972L176.357 37.0035L177.556 36.7383L178.521 36.2741L180.353 34.351L180.886 34.1189L181.518 34.6494L183.017 35.1467L185.381 35.2794Z" fill="white" stroke="#C41E2D" stroke-width="2" stroke-linecap="round" stroke-linejoin="round"/>
<path d="M238.694 85.9106L239.094 87.668L239.793 89.3258L240.26 91.2821L241.025 97.0847L242.724 101.296L243.823 103.451L245.421 104.313L247.086 104.545L248.485 105.639L247.985 106.535L248.118 107.794L248.884 109.187L250.05 109.817L250.782 110.58L251.215 111.807L251.648 113.63L252.447 115.089L254.579 116.216L256.876 115.885L258.375 114.26L259.84 115.354L259.374 118.106L260.14 119.167L261.072 119.831L262.77 118.969L264.535 118.471L265.001 120.825L265.201 123.412L265.568 125.169L265.634 126.993L265.568 128.087L267.233 129.877L267.865 130.739L268.531 131.303L268.764 131.601L268.831 132.099L268.731 132.497L268.598 132.895L268.565 133.326L268.664 133.956L268.831 134.387L269.064 134.619L269.497 134.685L269.564 134.917L269.397 136.542L269.597 137.072L270.096 137.802L270.729 138.266L271.229 138.034L271.595 138.631L272.327 138.797L273.926 138.73L278.621 139.692L280.985 139.36L281.885 139.659L282.584 140.322L282.85 141.449L283.483 141.084L284.049 141.416L284.882 142.444L284.748 142.709L284.582 143.24L284.515 143.472L285.015 143.77L285.481 143.604L285.947 143.306L284.981 145.13L282.118 149.341L281.252 151.363L280.253 152.623L279.087 153.087L275.524 151.264L274.292 150.965L273.759 151.33L273.26 151.861L273.06 152.491L272.894 153.22L271.229 154.58L267.899 154.281L266.733 154.414L263.869 156.569L262.804 156.901L261.272 156.602L257.143 157.431L252.747 157.398L250.449 158.061L248.318 159.653L248.518 160.913L248.984 162.272L249.584 163.532L249.717 164.825L250.449 166.649L251.515 168.24L249.85 169.268L248.684 170.893L250.183 173.247L249.983 174.341L249.251 175.038L247.086 175.8L244.888 175.469L243.823 175.004L242.724 175.303L242.424 176.563L242.457 177.06L242.824 177.69L243.29 178.221L244.122 178.619L245.687 178.95L246.22 178.884L246.953 178.552L247.253 178.585L247.719 178.917L247.819 179.315L247.785 179.879L247.852 180.575L248.385 181.404L248.518 182.001L248.052 182.531V182.863L248.984 182.962L248.951 184.952L248.218 185.946L247.519 186.543L247.452 187.704L248.651 189.163L248.451 190.522L248.085 191.981L248.152 193.009L247.819 193.042L247.552 193.274L247.186 194.07L246.62 197.054L246.353 197.75L246.254 198.148L246.22 198.712L246.287 199.077L246.553 199.939L246.786 201.497L247.519 203.321L237.862 205.343L232.867 203.785L230.536 203.586L228.471 202.227L228.272 201.497L228.138 200.701L227.239 199.673L227.006 198.082L226.074 197.75L225.141 198.646L224.242 199.906L223.243 200.469L219.047 201.132L215.384 200.37L214.619 199.773L213.986 198.778L213.287 197.982L208.292 194.932L207.392 192.644L205.727 192.047L205.628 190.655L206.027 189.328L207.959 187.538L208.458 186.212V184.653L208.058 184.222L206.96 183.658L206.726 182.896L206.627 181.337L206.327 179.845L205.428 177.723L206.194 174.971H208.558L210.356 175.966L212.554 176.264L212.954 175.469L213.02 174.308L212.554 173.081L210.956 171.39L210.656 169.998L210.822 169.368L211.122 168.937L211.388 168.373L211.189 167.577L209.424 165.19L207.226 163.499L205.228 162.57L202.031 162.968L200.932 162.604L200.666 161.808L200.732 160.879L200.033 159.818L199.201 158.89L198.968 157.862L199.967 157.265L200.3 154.812L199.867 154.281L198.701 153.485L196.603 152.656L196.137 152.789L195.704 152.557L195.105 151.164L195.005 149.473L194.605 148.213L193.773 147.616L192.707 147.318L191.741 146.821L191.042 145.561L190.21 144.5L189.077 144.599L188.112 145.594L181.851 146.887L179.054 144.632L177.489 143.903L174.326 143.24L171.395 141.25L171.595 140.388L171.728 139.559L173.959 135.879L173.826 134.984L173.227 134.354L173.36 132.43L174.192 130.806L176.224 124.904L177.522 124.572L177.489 122.914L176.623 120.825L176.09 119.897L175.757 118.836L176.024 117.841L176.623 117.178L176.79 115.321L176.324 113.299L177.789 113.464L179.054 112.403L179.62 111.574L180.253 110.944L180.852 111.21L181.418 111.608L181.985 111.674L182.251 110.812L182.417 109.85L182.517 108.856L182.284 107.363L182.251 106.402L182.051 105.44L183.616 104.711L185.048 103.55L186.114 103.285L186.98 102.556L187.745 101.03L188.944 100.633L189.477 100.765L189.943 101.064L190.143 101.528L190.409 101.826L199.933 103.318L202.231 102.887L203.13 102.423L203.929 101.528L204.429 99.8367L205.361 99.1073L206.527 99.2067L207.626 98.8752L211.855 96.4547L212.854 95.261L213.953 94.3658L216.117 94.3989L218.048 94.001L220.246 92.7411H223.143L225.841 91.879L228.138 89.1601L230.836 89.3922L232.201 89.1932L233.433 88.3311L234.299 86.607L235.031 86.2091L238.694 85.9106Z" fill="white" stroke="#C41E2D" stroke-width="2" stroke-linecap="round" stroke-linejoin="round"/>
<path d="M185.148 215.291L181.851 213.633L178.821 213.798L177.822 213.5L174.991 208.991L173.16 207.333L171.129 206.968L170.096 207.863H167.699L165.734 207.465L161.771 205.343L160.839 204.382L159.773 204.183L158.841 204.846L157.842 205.31L153.58 205.443L152.048 206.205L149.783 204.349L149.084 202.989L148.285 201.994L147.919 202.227L147.652 202.724L147.253 203.055L145.121 203.122L138.361 201.364L137.462 200.668L136.796 199.441L136.597 197.22L136.297 195.893L134.565 194.335L133.999 193.009L133.899 191.45L134.399 190.389L136.597 189.892L137.362 188.698L137.862 187.173L139.36 186.742L141.025 187.538L142.457 186.51L143.29 184.222L143.257 181.636L142.957 178.983L143.09 175.8L143.889 172.816L145.288 169.467L146.054 168.406L147.785 167.61L152.181 168.074L152.514 167.71L153.979 165.157L154.079 163.598L153.513 162.04L153.18 160.316L153.38 158.658L153.813 157.166L154.778 157.066L155.811 157.199L157.842 156.735L159.374 154.911L159.64 151.861L159.94 150.468L162.97 149.208L164.835 147.417L164.768 146.92L164.302 146.787L163.736 145.561L163.669 143.969L163.969 143.604L164.202 143.14L164.702 142.842L168.431 142.775L169.597 142.444L169.863 141.88L170.23 141.317L170.829 141.217L171.395 141.25L174.325 143.24L177.489 143.903L179.054 144.632L181.851 146.887L188.112 145.594L189.077 144.599L190.21 144.5L191.042 145.561L191.741 146.821L192.707 147.318L193.773 147.616L194.605 148.213L195.005 149.473L195.105 151.164L195.704 152.557L196.137 152.789L196.603 152.656L198.701 153.485L199.867 154.281L200.299 154.812L199.966 157.265L198.967 157.862L199.201 158.89L200.033 159.818L200.732 160.879L200.666 161.808L200.932 162.604L202.031 162.968L205.228 162.57L207.226 163.499L209.424 165.19L211.189 167.577L211.388 168.373L211.122 168.937L210.822 169.368L210.656 169.998L210.955 171.39L212.554 173.081L213.02 174.308L212.953 175.469L212.554 176.264L210.356 175.966L208.558 174.971H206.194L205.428 177.723L206.327 179.845L206.626 181.337L206.726 182.896L206.959 183.658L208.058 184.222L208.458 184.653V186.212L207.958 187.538L206.027 189.328L205.627 190.655L205.727 192.047L204.862 192.71L203.763 195.429L202.764 195.893L201.765 196.059L200.799 196.523L198.701 198.513L197.735 198.778L194.372 198.314L193.44 198.679L192.707 199.64L191.941 202.525L193.34 204.614L194.272 205.376L194.539 206.968L194.305 208.526L193.639 209.322L189.643 206.404L188.578 206.603L188.178 208.162L188.145 209.687L188.278 211.179L187.779 212.605L186.713 213.301L185.847 214.13L185.148 215.291Z" fill="white" stroke="#C41E2D" stroke-width="2" stroke-linecap="round" stroke-linejoin="round"/>
<path d="M166.334 80.2407L168.964 85.3138L169.697 87.5021L170.629 89.2263L171.095 89.9226L171.795 90.2211H172.361L174.692 90.9837L177.922 92.9399L181.352 93.8352L183.05 95.0289L184.615 98.9746L185.048 103.55L183.616 104.711L182.051 105.44L182.251 106.402L182.284 107.363L182.517 108.855L182.417 109.85L182.251 110.812L181.985 111.674L181.418 111.608L180.852 111.21L180.253 110.944L179.62 111.574L179.054 112.403L177.789 113.464L176.324 113.299L176.79 115.321L176.623 117.178L176.024 117.841L175.757 118.836L176.09 119.897L176.623 120.825L177.489 122.914L177.522 124.572L176.224 124.904L174.192 130.806L173.36 132.43L173.227 134.353L173.826 134.983L173.959 135.879L171.728 139.559L171.595 140.388L171.395 141.25L170.829 141.217L170.23 141.317L169.863 141.88L169.597 142.444L168.431 142.775L164.702 142.842L164.202 143.14L163.969 143.604L163.67 143.969L160.806 141.781L159.74 141.947L156.577 143.273L155.478 143.372L154.645 141.482L149.65 137.404L148.751 136.343L147.686 135.846L147.119 135.912L146.553 136.144L146.287 136.708L145.821 136.973L145.088 136.741L144.522 135.879L144.156 135.083L143.923 134.188L143.49 133.889L142.89 133.723L141.125 135.779L140.093 136.243L137.03 135.448L136.064 134.519L135.198 133.425L134.166 133.027L133.067 132.928L131.968 132.397L128.871 129.546L126.607 128.319L124.509 128.219L122.577 127.556L122.244 127.357L122.011 127.059L121.878 126.23L121.612 125.567L120.679 124.771L120.146 125.268L118.914 125.666L117.682 125.434L117.083 124.473L116.617 123.312L115.518 122.251L115.718 120.991L116.25 120.593L116.783 120.626L117.283 120.461L117.616 119.764L118.282 116.25L116.783 113L114.519 111.276L112.055 110.381L113.42 107.264L113.819 104.147L112.887 102.357L112.621 100.235L115.385 97.9135L113.953 94.631L111.355 92.6415L111.022 91.1163L113.187 88.2648L114.053 86.408L114.885 85.9106L115.784 82.7275L116.517 81.1028L117.383 79.9423L118.481 79.8428L122.677 80.937L124.575 80.1744V79.0802L124.709 78.3839L124.875 77.7207L125.841 76.7923L127.905 76.0297L129.137 73.775L129.97 73.145L133.799 73.9076L138.928 73.145L139.96 73.2113L140.859 74.3718L141.858 75.3002L147.286 76.1955L149.85 77.7207L150.982 76.9913L152.747 76.3613L155.211 76.726L155.777 77.0576L156.21 77.5549L156.677 77.8534L158.675 79.9091L159.607 80.5059L161.272 81.1691L164.702 80.9701L166.334 80.2407Z" fill="white" stroke="#C41E2D" stroke-width="2" stroke-linecap="round" stroke-linejoin="round"/>
<path d="M123.643 198.778L123.243 196.391L122.877 191.45L123.743 189.428L122.644 188.566L121.512 188.234L119.647 188.599L117.882 188.201L117.149 186.41L116.983 184.322L117.416 183.294L118.148 182.829L118.548 181.636L118.848 180.243L115.851 178.287L112.521 177.392L108.958 177.359L107.692 177.624L106.56 180.21L100.3 181.304L96.8363 180.077L95.1713 178.254L92.241 176.629L90.9423 174.308L90.8423 172.75L90.3096 171.523L86.913 169.666L85.6808 169.334L83.0501 169.865L82.0845 166.218L80.1198 164.062L77.922 165.554L76.5234 165.123L75.2247 164.228L74.7918 162.935L74.925 161.244L75.1914 160.316L75.1581 159.321L74.6586 159.023L74.1258 159.221H73.0269L71.928 158.127L71.2287 156.867L70.6959 155.342L69.0309 154.447L68.1984 153.618L67.4991 152.557L67.266 150.998L67.2993 149.374L67.6323 147.915L67.6989 147.152L67.8654 146.456L68.8311 143.571L68.7645 140.521L68.1651 139.062L66.8997 136.807L67.5324 136.343H68.3316V134.884L68.0985 133.06L67.7322 131.336L66.6666 128.418L66.5667 125.666L66.6999 124.605L66.7332 123.478L66.933 123.014L67.3992 123.08L70.263 122.185L70.8291 121.787L71.1288 121.024L70.4628 118.571L69.5304 117.708L72.4941 113.929L72.3942 110.745L72.9936 107.861L74.6586 108.424L76.4901 109.519L78.3882 109.286L80.253 108.557L83.1501 105.805L85.6143 101.959L89.9766 99.4056L92.2077 98.7093L93.0735 97.8804L93.8061 96.6204L94.7052 95.493L94.5387 94.0341L93.573 92.8405L92.4741 92.2436L90.1763 91.6799L88.2783 89.8231L87.8121 88.0326L87.7788 86.01L88.4781 85.0485L94.0392 85.2143L94.9383 85.0153L95.7042 81.7991L96.3036 80.1412L97.1028 78.7486L98.1683 78.2844L99.3338 78.2512L100.466 78.616L101.898 80.4064L103.163 82.5948L104.928 83.6559L111.089 83.9211L112.687 84.8164L114.052 86.4079L113.187 88.2647L111.022 91.1163L111.355 92.6415L113.953 94.6309L115.384 97.9135L112.621 100.235L112.887 102.357L113.819 104.147L113.42 107.264L112.054 110.381L114.519 111.276L116.783 113L118.282 116.25L117.616 119.764L117.283 120.461L116.783 120.626L116.25 120.593L115.717 120.991L115.518 122.251L116.617 123.312L117.083 124.473L117.682 125.434L118.914 125.666L120.146 125.268L120.679 124.771L121.612 125.567L121.878 126.23L122.011 127.059L122.244 127.357L122.577 127.556L124.509 128.219L126.607 128.319L128.871 129.546L131.968 132.397L133.067 132.928L134.166 133.027L135.198 133.425L136.064 134.519L137.029 135.448L140.093 136.243L141.125 135.779L142.89 133.723L143.49 133.889L143.923 134.188L144.156 135.083L144.522 135.879L145.088 136.741L145.821 136.973L146.287 136.708L146.553 136.144L147.119 135.912L147.685 135.846L148.751 136.343L149.65 137.404L154.645 141.482L155.478 143.372L156.577 143.273L159.74 141.946L160.806 141.781L163.669 143.969L163.736 145.561L164.302 146.787L164.768 146.92L164.835 147.417L162.97 149.208L159.94 150.468L159.64 151.861L159.374 154.911L157.842 156.735L155.811 157.199L154.778 157.066L153.813 157.166L153.38 158.658L153.18 160.316L153.513 162.04L154.079 163.598L153.979 165.157L152.514 167.71L152.181 168.074L147.785 167.61L146.054 168.406L145.288 169.467L143.889 172.816L143.09 175.8L142.957 178.983L143.257 181.636L143.29 184.222L142.457 186.51L141.025 187.538L139.36 186.742L137.862 187.173L137.362 188.698L136.597 189.892L134.399 190.389L133.899 191.45L133.999 193.009L134.565 194.335L136.297 195.893L136.597 197.22L136.796 199.441L133.333 201.497L129.77 202.823L127.839 202.724L126.24 201.431L126.074 200.27L125.674 199.242L124.675 198.712L123.643 198.778Z" fill="white" stroke="#C41E2D" stroke-width="2" stroke-linecap="round" stroke-linejoin="round"/>
<path d="M191.375 230.477L190.509 230.145L188.445 229.847L187.412 229.283L188.012 227.957L190.076 226.233L191.308 226.034L189.877 224.276L189.011 222.419L187.978 221.624L185.714 220.961L184.882 219.999L186.014 217.844L188.078 217.512L188.212 217.114V216.551L188.112 216.02L187.712 215.788L185.148 215.291L185.847 214.13L186.713 213.301L187.779 212.605L188.278 211.179L188.145 209.687L188.178 208.162L188.578 206.603L189.643 206.404L193.639 209.322L194.305 208.527L194.539 206.968L194.272 205.377L193.34 204.614L191.941 202.525L192.707 199.64L193.44 198.679L194.372 198.314L197.735 198.778L198.701 198.513L200.799 196.524L201.765 196.059L202.764 195.894L203.763 195.429L204.862 192.711L205.727 192.047L207.392 192.644L208.291 194.932L213.286 197.983L213.986 198.778L214.618 199.773L215.384 200.37L219.047 201.132L223.243 200.469L224.242 199.906L225.141 198.646L226.074 197.75L227.006 198.082L227.239 199.674L228.138 200.701L228.271 201.497L228.471 202.227L230.536 203.586L232.867 203.785L237.862 205.343L247.519 203.321L247.652 203.984L247.519 204.249L247.286 204.448L247.019 204.581L246.82 204.614V204.946L247.352 205.377L247.452 206.305L247.252 208.361L247.219 208.527L247.119 208.593L247.053 208.759L247.019 209.057L247.086 209.322L247.219 209.455L247.352 209.521L247.419 209.687L247.486 210.151L248.251 213.069L248.418 214.097L248.485 214.727L248.551 216.484L248.285 218.374L248.085 219.104L247.719 219.966L247.252 220.662L246.72 220.961L245.92 221.093L245.388 221.458L244.522 222.917L243.09 224.608L242.89 225.337L242.724 226.266L242.357 226.995L241.425 228.123L240.859 228.587L238.927 229.084L236.03 230.377L236.164 230.576L236.463 231.339L235.897 231.936L235.098 232.4L234.332 232.566L233.766 232.3L231.934 233.925L231.801 233.958L231.368 233.925L231.268 234.025V234.223L231.302 234.456L231.268 234.588L230.935 234.853L230.736 234.82L230.469 234.588L230.303 235.251L229.936 235.583L229.57 235.749L229.437 236.014L229.37 236.412L229.27 236.511H229.104L228.904 236.677L228.371 237.407V237.473L227.839 237.606L227.539 237.34L227.272 237.009L226.84 236.81L226.54 236.876L225.274 237.473L225.008 237.738L224.708 238.037L224.375 238.335L223.909 238.468L221.678 238.534L221.378 238.633L221.112 238.866L220.812 239.263L220.546 239.429L219.713 239.496L219.28 239.761L218.814 239.462L218.415 239.728L218.015 240.159L217.516 240.391L216.35 239.297L216.184 239.562L215.984 240.391L215.351 241.021L215.251 241.087H214.985L214.852 241.187L214.752 241.419L214.718 241.916L214.618 242.148L214.186 242.579L213.22 243.043L212.854 243.64L212.72 244.138L211.821 245.099L207.859 244.966L205.627 243.64L205.061 242.447L203.696 240.523L203.163 239.429L202.664 237.241L201.265 234.522L198.967 232.964L196.403 232.168L195.404 231.107L194.206 230.477H191.375Z" fill="white" stroke="#C41E2D" stroke-width="2" stroke-linecap="round" stroke-linejoin="round"/>
</svg>
