<svg width="47" height="33" viewBox="0 0 47 33" fill="none" xmlns="http://www.w3.org/2000/svg">
<path d="M46.0625 21.8125C46.0625 23.2292 45.7917 24.5625 45.25 25.8125C44.75 27.0208 44.0417 28.1042 43.125 29.0625C42.2083 29.9792 41.125 30.7083 39.875 31.25C38.6667 31.7917 37.3542 32.0625 35.9375 32.0625C34.1458 32.0625 32.5625 31.6667 31.1875 30.875C29.8542 30.0833 28.7083 29.0625 27.75 27.8125C26.8333 26.5208 26.125 25.0625 25.625 23.4375C25.1667 21.7708 24.9375 20.0833 24.9375 18.375C24.9375 16.5 25.1875 14.6458 25.6875 12.8125C26.1875 10.9792 26.8958 9.27083 27.8125 7.6875C28.7708 6.10417 29.9375 4.66667 31.3125 3.375C32.6875 2.08333 34.2292 1.02083 35.9375 0.1875L41.4375 3.125C40.3542 4.20833 39.4167 5.45833 38.625 6.875C37.875 8.29167 37.5 9.77083 37.5 11.3125V11.875C38.7083 12.0833 39.8333 12.4792 40.875 13.0625C41.9167 13.6458 42.8125 14.375 43.5625 15.25C44.3542 16.125 44.9583 17.125 45.375 18.25C45.8333 19.375 46.0625 20.5625 46.0625 21.8125ZM21.75 21.8125C21.75 23.2292 21.4792 24.5625 20.9375 25.8125C20.4375 27.0208 19.7292 28.1042 18.8125 29.0625C17.8958 29.9792 16.8125 30.7083 15.5625 31.25C14.3542 31.7917 13.0417 32.0625 11.625 32.0625C9.83333 32.0625 8.25 31.6667 6.875 30.875C5.54167 30.0833 4.39583 29.0625 3.4375 27.8125C2.52083 26.5208 1.8125 25.0625 1.3125 23.4375C0.854167 21.7708 0.625 20.0833 0.625 18.375C0.625 16.5 0.875 14.6458 1.375 12.8125C1.875 10.9792 2.58333 9.27083 3.5 7.6875C4.45833 6.10417 5.625 4.66667 7 3.375C8.375 2.08333 9.91667 1.02083 11.625 0.1875L17.125 3.125C16.0417 4.20833 15.1042 5.45833 14.3125 6.875C13.5625 8.29167 13.1875 9.77083 13.1875 11.3125V11.875C14.3958 12.0833 15.5208 12.4792 16.5625 13.0625C17.6042 13.6458 18.5 14.375 19.25 15.25C20.0417 16.125 20.6458 17.125 21.0625 18.25C21.5208 19.375 21.75 20.5625 21.75 21.8125Z" fill="#C41E2D"/>
</svg>
