<svg width="853" height="1988" viewBox="0 0 853 1988" fill="none" xmlns="http://www.w3.org/2000/svg">
<path d="M127.82 -328.622C98.12 -252.445 71.2001 -168.518 49.8601 -77.7936C44.1301 -53.5686 38.8701 -28.8463 33.9701 -3.56451C20.5501 66.1884 10.51 139.692 4.90005 216.532C-4.31995 344.433 -1.09995 481.515 19.57 626.326C19.57 626.326 82.31 863.664 208.84 970.096C308.42 1053.84 421.7 1184.02 493.3 1345.57C506.09 1374.36 517.55 1404.28 527.36 1435.01C532.42 1451.03 537.13 1467.13 541.29 1483.71C580.17 1636.98 625.88 1801.45 700 1898.95C726.72 1934.16 757.13 1960.58 792.28 1974.74C803.27 1979.3 814.8 1982.55 826.81 1984.33C860.04 1989.62 891.9 1987.67 922.31 1978.49C929.29 1976.37 936.2 1973.93 943.03 1971.01C951.62 1967.34 960.06 1963.2 968.34 1958.57C1030.73 1922.81 1086.05 1853.53 1133.21 1751.24C1151.93 1710.67 1169.35 1664.97 1185.39 1614C1188.49 1604.32 1191.59 1594.16 1194.57 1584.07C1198.14 1571.95 1201.59 1559.6 1205.16 1547C1209.52 1531.48 1213.79 1515.6 1217.95 1499.36C1248.87 1380.49 1276.1 1240.8 1285.79 1089C1287.71 1059.16 1288.93 1028.99 1289.36 998.341C1289.87 962.491 1289.28 925.977 1287.52 889.153C1279.59 725.878 1247.22 553.754 1175.97 381.548C987.09 -74.5816 970.14 46.7297 779.14 -467.797C683.25 -726.065 583.43 -811.754 489.62 -801.102C472.04 -798.988 454.66 -793.704 437.63 -785.415C435.16 -784.192 432.8 -783.053 430.37 -781.747C421.07 -776.96 411.85 -771.178 402.75 -764.506C399.96 -762.475 397.18 -760.444 394.39 -758.247C343.78 -719.226 296.26 -657.348 253.65 -586.766C248.24 -577.814 242.86 -568.634 237.56 -559.454C230.3 -546.854 223.08 -533.674 215.9 -520.101C214.45 -517.573 213.08 -514.9 211.7 -512.206C208.76 -506.755 205.89 -501.14 202.95 -495.379C176.94 -444.877 151.47 -389.195 127.81 -328.622H127.82Z" fill="#FBF1D9"/>
</svg>
