<svg width="40" height="40" viewBox="0 0 40 40" fill="none" xmlns="http://www.w3.org/2000/svg">
<path fill-rule="evenodd" clip-rule="evenodd" d="M23 9.69444C23 9.31092 22.6834 9 22.2929 9H19.1818C17.4936 9 15.8756 9.66217 14.6826 10.8243C13.4882 12 12.8182 13.5878 12.8182 15.25V19H9.70708C9.31657 19 9 19.311 9 19.6944V23.3056C9 23.689 9.31657 24 9.70707 24H12.8182V33.3056C12.8182 33.689 13.1348 34 13.5253 34H17.202C17.5925 34 17.9091 33.689 17.9091 33.3056V24H22.2929C22.6834 24 23 23.689 23 23.3056V19.6944C23 19.311 22.6834 19 22.2929 19H17.9091V15.25C17.9091 14.9122 18.0426 14.6 18.282 14.3622C18.52 14.1378 18.8447 14 19.1818 14H22.2929C22.6834 14 23 13.6891 23 13.3056V9.69444Z" fill="#EC1C24"/>
</svg>
