<svg width="30" height="30" viewBox="0 0 30 30" fill="none" xmlns="http://www.w3.org/2000/svg">
<path d="M9.7277 3.75H20.2711C23.9562 3.75 26.25 6.35149 26.25 10.033V19.967C26.25 23.6485 23.9563 26.25 20.2699 26.25H9.7277C6.04256 26.25 3.75 23.6485 3.75 19.967V10.033C3.75 6.35149 6.05351 3.75 9.7277 3.75Z" stroke="#EC1C24" stroke-width="2" stroke-linecap="round" stroke-linejoin="round"/>
<path d="M14.8056 11.0351C12.3878 11.0351 10.4272 12.9957 10.4272 15.4135C10.4272 17.8314 12.3878 19.7919 14.8056 19.7919C17.2235 19.7919 19.184 17.8314 19.184 15.4135C19.184 12.9957 17.2235 11.0351 14.8056 11.0351Z" stroke="#EC1C24" stroke-width="2" stroke-linecap="round" stroke-linejoin="round"/>
<path d="M21.0826 9.20467V9.29093M21.4351 9.22344C21.4351 9.41969 21.2764 9.57844 21.0801 9.57844C20.8839 9.57844 20.7239 9.41969 20.7239 9.22344C20.7239 9.02719 20.8839 8.86719 21.0801 8.86719C21.2764 8.86719 21.4351 9.02719 21.4351 9.22344Z" stroke="#EC1C24" stroke-width="2" stroke-linecap="round" stroke-linejoin="round"/>
</svg>
