<svg xmlns="http://www.w3.org/2000/svg" width="700" height="400" viewBox="0 0 700 400"><rect width="100%" height="100%" fill="#DDDDDD"/><path fill="#999999" d="M141.94 166.38h46.45v4.98q0 2.23-.47 3.6-.46 1.37-.93 2.3l-25.48 52.45q-.79 1.63-2.23 2.77-1.44 1.14-3.86 1.14h-8.32l25.99-51.38q.88-1.58 1.74-2.91.86-1.32 1.93-2.53h-32.17q-1.07 0-1.86-.79t-.79-1.86v-7.77ZM243.17 200q0 8.79-1.89 15.28-1.88 6.48-5.21 10.71-3.32 4.24-7.85 6.3-4.54 2.07-9.79 2.07-5.26 0-9.74-2.07-4.49-2.06-7.79-6.3-3.3-4.23-5.16-10.71-1.86-6.49-1.86-15.28 0-8.83 1.86-15.3 1.86-6.46 5.16-10.69 3.3-4.23 7.79-6.3 4.48-2.07 9.74-2.07 5.25 0 9.79 2.07 4.53 2.07 7.85 6.3 3.33 4.23 5.21 10.69 1.89 6.47 1.89 15.3Zm-11.86 0q0-7.3-1.07-12.09t-2.86-7.63q-1.79-2.83-4.12-3.97-2.32-1.14-4.83-1.14-2.47 0-4.77 1.14-2.3 1.14-4.07 3.97-1.76 2.84-2.81 7.63T205.73 200q0 7.3 1.05 12.09t2.81 7.63q1.77 2.83 4.07 3.97 2.3 1.14 4.77 1.14 2.51 0 4.83-1.14 2.33-1.14 4.12-3.97 1.79-2.84 2.86-7.63 1.07-4.79 1.07-12.09Zm65.8 0q0 8.79-1.89 15.28-1.88 6.48-5.21 10.71-3.32 4.24-7.85 6.3-4.54 2.07-9.79 2.07-5.26 0-9.74-2.07-4.49-2.06-7.79-6.3-3.3-4.23-5.16-10.71-1.86-6.49-1.86-15.28 0-8.83 1.86-15.3 1.86-6.46 5.16-10.69 3.3-4.23 7.79-6.3 4.48-2.07 9.74-2.07 5.25 0 9.79 2.07 4.53 2.07 7.85 6.3 3.33 4.23 5.21 10.69 1.89 6.47 1.89 15.3Zm-11.86 0q0-7.3-1.07-12.09t-2.86-7.63q-1.79-2.83-4.12-3.97-2.32-1.14-4.83-1.14-2.47 0-4.77 1.14-2.3 1.14-4.07 3.97-1.76 2.84-2.81 7.63T259.67 200q0 7.3 1.05 12.09t2.81 7.63q1.77 2.83 4.07 3.97 2.3 1.14 4.77 1.14 2.51 0 4.83-1.14 2.33-1.14 4.12-3.97 1.79-2.84 2.86-7.63 1.07-4.79 1.07-12.09Zm85.7 18.23-6.09 6-15.77-15.77-15.9 15.86-6.09-6 15.9-15.95-15.16-15.16 6.05-6.04 15.16 15.16 15.06-15.07 6.14 6.05-15.11 15.11 15.81 15.81Zm40.27-9.95h20.46v-22q0-3.11.42-6.88l-20.88 28.88Zm30.45 0h8.47v6.65q0 .93-.61 1.6-.6.68-1.72.68h-6.14v16.41h-9.99v-16.41h-28.37q-1.16 0-2.04-.73-.89-.72-1.12-1.79l-1.21-5.81 31.85-42.55h10.88v41.95Zm62.45-8.28q0 8.79-1.88 15.28-1.88 6.48-5.21 10.71-3.32 4.24-7.86 6.3-4.53 2.07-9.78 2.07-5.26 0-9.75-2.07-4.48-2.06-7.78-6.3-3.31-4.23-5.17-10.71-1.86-6.49-1.86-15.28 0-8.83 1.86-15.3 1.86-6.46 5.17-10.69 3.3-4.23 7.78-6.3 4.49-2.07 9.75-2.07 5.25 0 9.78 2.07 4.54 2.07 7.86 6.3 3.33 4.23 5.21 10.69 1.88 6.47 1.88 15.3Zm-11.85 0q0-7.3-1.07-12.09t-2.86-7.63q-1.79-2.83-4.12-3.97-2.32-1.14-4.83-1.14-2.47 0-4.77 1.14-2.3 1.14-4.07 3.97-1.77 2.84-2.81 7.63-1.05 4.79-1.05 12.09t1.05 12.09q1.04 4.79 2.81 7.63 1.77 2.83 4.07 3.97 2.3 1.14 4.77 1.14 2.51 0 4.83-1.14 2.33-1.14 4.12-3.97 1.79-2.84 2.86-7.63 1.07-4.79 1.07-12.09Zm65.79 0q0 8.79-1.88 15.28-1.88 6.48-5.21 10.71-3.32 4.24-7.86 6.3-4.53 2.07-9.78 2.07-5.26 0-9.75-2.07-4.48-2.06-7.78-6.3-3.31-4.23-5.17-10.71-1.86-6.49-1.86-15.28 0-8.83 1.86-15.3 1.86-6.46 5.17-10.69 3.3-4.23 7.78-6.3 4.49-2.07 9.75-2.07 5.25 0 9.78 2.07 4.54 2.07 7.86 6.3 3.33 4.23 5.21 10.69 1.88 6.47 1.88 15.3Zm-11.85 0q0-7.3-1.07-12.09t-2.86-7.63q-1.79-2.83-4.12-3.97-2.32-1.14-4.83-1.14-2.47 0-4.77 1.14-2.3 1.14-4.07 3.97-1.77 2.84-2.81 7.63-1.05 4.79-1.05 12.09t1.05 12.09q1.04 4.79 2.81 7.63 1.77 2.83 4.07 3.97 2.3 1.14 4.77 1.14 2.51 0 4.83-1.14 2.33-1.14 4.12-3.97 1.79-2.84 2.86-7.63 1.07-4.79 1.07-12.09Z"/></svg>